<svg version="1.1" id="Layer_1" xmlns="http://www.w3.org/2000/svg" xmlns:xlink="http://www.w3.org/1999/xlink" x="0px" y="0px" viewBox="0 0 29.3 29.4" style="enable-background:new 0 0 29.3 29.4;" xml:space="preserve">
<style type="text/css">
	.st0{fill:#FAFAFA;}
	.st1{fill:#070707;}
	.st2{fill:#FCAD17;}
	.st3{fill:#FFFFFF;}
	.st4{fill:#FAAD18;}
	.st5{fill:#EAEFF4;}
	.st6{fill:#D9E3EC;}
	.st7{fill:#C6D3E3;}
	.st8{fill:url(#SVGID_1_);}
	.st9{fill:url(#SVGID_00000083778508670322945800000016040668542801689746_);}
	.st10{fill:#FAFBFD;}
	.st11{fill:url(#SVGID_00000161595347812919488150000010579089709813156519_);}
	.st12{fill:url(#SVGID_00000173847431944041762550000013453943265706461877_);}
	.st13{fill:#F4A631;}
	.st14{fill:#FFCF76;}
	.st15{fill:url(#SVGID_00000090291257638134061330000013200440512510186402_);}
	.st16{fill:url(#SVGID_00000178196736326434547530000017700362270126672564_);}
	.st17{fill:url(#SVGID_00000166638483335505979420000009460495733736943535_);}
	.st18{fill-rule:evenodd;clip-rule:evenodd;fill:#F4A631;}
	.st19{fill-rule:evenodd;clip-rule:evenodd;fill:#FFE6B8;}
	.st20{fill:#FFE6B8;}
	.st21{fill-rule:evenodd;clip-rule:evenodd;fill:#FFD792;}
	.st22{fill:#FFD792;}
	.st23{fill:#F4F6F9;}
	.st24{fill:#F7BB44;}
	.st25{fill-rule:evenodd;clip-rule:evenodd;fill:#FAFBFD;}
	.st26{fill-rule:evenodd;clip-rule:evenodd;fill:#D9E3EC;}
	.st27{fill-rule:evenodd;clip-rule:evenodd;fill:#FFCF76;}
	.st28{fill:url(#SVGID_00000144339354875780189900000003457527053999163015_);}
	.st29{fill-rule:evenodd;clip-rule:evenodd;fill:#FFDEA4;}
	.st30{fill:#FCBA39;}
	.st31{fill:url(#SVGID_00000095325113374995441390000018159299899777182398_);}
	.st32{fill:url(#SVGID_00000099656258589985471140000005292304454409011880_);}
	.st33{fill:url(#SVGID_00000127006122398556935990000007029257580810360760_);}
	.st34{fill:url(#SVGID_00000074408048133405276240000016779488486495607963_);}
	.st35{fill:url(#SVGID_00000066507659591164099590000018368145429728496770_);}
	.st36{fill:url(#SVGID_00000080189721708010631460000012273430009981573021_);}
	.st37{fill:url(#SVGID_00000163752423365923119070000004213763818589713294_);}
	.st38{fill:url(#SVGID_00000062180371756789302230000008648324208960117176_);}
	.st39{fill:url(#SVGID_00000068672619137056871370000000398439194278721466_);}
	.st40{fill:url(#SVGID_00000041283636594943607300000009263555855907692714_);}
	.st41{fill:#F5F7FB;}
	.st42{fill:url(#SVGID_00000005967113321024495380000017499927734443253397_);}
	.st43{fill-rule:evenodd;clip-rule:evenodd;fill:url(#SVGID_00000019659510198465551080000001452249211247458224_);}
	.st44{fill-rule:evenodd;clip-rule:evenodd;fill:#EE5635;}
	.st45{fill:#EE5635;}
	.st46{fill:#F4745B;}
	.st47{fill:#FFDEA4;}
	.st48{fill:url(#SVGID_00000134972677830879148130000010179840350245356928_);}
	.st49{fill:url(#SVGID_00000088849669718736019530000002246750176450329763_);}
	.st50{fill-rule:evenodd;clip-rule:evenodd;fill:#F7BB44;}
	.st51{fill:url(#SVGID_00000059295857312925605210000005949770533321256370_);}
	.st52{fill:url(#SVGID_00000070824162540908328070000018222176791469868726_);}
	.st53{fill-rule:evenodd;clip-rule:evenodd;fill:url(#SVGID_00000045601082442817660980000017047539666905789873_);}
	.st54{fill-rule:evenodd;clip-rule:evenodd;fill:#4A8DE6;}
	.st55{fill:url(#SVGID_00000103246381784142074940000003243597111198902936_);}
	.st56{fill-rule:evenodd;clip-rule:evenodd;fill:url(#SVGID_00000160900192637745594790000003864982890505507986_);}
	.st57{fill:url(#SVGID_00000113342774698617547590000017456665695751213228_);}
	.st58{fill-rule:evenodd;clip-rule:evenodd;fill:#5D9EF2;}
	.st59{fill:url(#SVGID_00000143607129182091277570000008915018718111975320_);}
	.st60{fill:url(#SVGID_00000121268319253955961060000008273637446102980483_);}
	.st61{fill:url(#SVGID_00000013881848745010874190000007999853949784483227_);}
	.st62{fill-rule:evenodd;clip-rule:evenodd;fill:#F2F4F9;}
	.st63{fill:url(#SVGID_00000088101412590042082710000013081974917747151529_);}
	.st64{fill:url(#SVGID_00000055666677009122174120000007962639199659656632_);}
	.st65{fill:url(#SVGID_00000112597336610983001460000013882336669475731620_);}
	.st66{fill:url(#SVGID_00000069380255880940249150000004116455784349226409_);}
	.st67{fill-rule:evenodd;clip-rule:evenodd;fill:#4CE400;}
	.st68{fill:#488A2E;}
	.st69{fill:url(#SVGID_00000134233383059104765830000008689338235858371766_);}
	.st70{fill:url(#SVGID_00000119082869789322027630000008659133036637970566_);}
	.st71{fill:url(#SVGID_00000116929355772280947580000012700519990050140331_);}
	.st72{fill:url(#SVGID_00000032639921652383927930000014180387436584305835_);}
	.st73{fill:url(#SVGID_00000000197571338653742490000016233692318642513302_);}
	.st74{fill:url(#SVGID_00000149369107611225262620000002023599477806727841_);}
	.st75{fill:url(#SVGID_00000091013030244503359470000016730118754776197307_);}
	.st76{fill:url(#SVGID_00000047749256825034507640000014469077604171473810_);}
	.st77{fill:#E7EDF3;}
	.st78{fill:url(#SVGID_00000005264788806196790120000001727733407086332340_);}
	.st79{fill:url(#SVGID_00000131342290439813373410000008049666176808753340_);}
	.st80{fill:url(#SVGID_00000078026519529266390390000010936899148354486168_);}
	.st81{fill:url(#SVGID_00000168839268181647544120000009705206477358956445_);}
	.st82{fill:url(#SVGID_00000132801822959692133980000007450723021824280987_);}
	.st83{fill:url(#SVGID_00000152972674633238009890000001394802084790925982_);}
	.st84{fill:url(#SVGID_00000120540162942334105830000003627174110380876933_);}
	.st85{fill:#F6F8FB;}
	.st86{fill:url(#SVGID_00000047752598516055650460000016271392561066009485_);}
	.st87{fill:url(#SVGID_00000140728230310150748590000006452884395556576921_);}
	.st88{fill:url(#SVGID_00000142174185803817392310000003747727729515690382_);}
	.st89{fill:url(#SVGID_00000142889683070689044850000015650420244496840582_);}
</style>
<g>
	<path d="M15.2,3.9c0,1.1,0,2.1,0,3.2c0,0.6-0.2,0.8-0.8,0.8c-3.3,0.1-6.2,2.6-6.6,6c-0.4,3.6,1.9,6.8,5.4,7.6
		c3.6,0.7,7.3-1.8,8-5.4c0.1-0.4,0.1-0.8,0.1-1.2c0-0.4,0.2-0.6,0.6-0.6c2.2,0,4.4,0,6.6,0c0.4,0,0.7,0.2,0.6,0.6
		c0,0.4-0.2,0.6-0.7,0.6c-0.6,0-1.3,0-1.9,0c-0.3,0-0.4,0.1-0.5,0.4c-0.4,4.9-4,9.2-8.8,10.4c-0.4,0.1-0.7,0-0.8-0.4
		c-0.1-0.4,0.1-0.6,0.5-0.8c1.1-0.3,2.2-0.7,3.1-1.4c2.7-1.8,4.3-4.4,4.7-7.7c0-0.1,0-0.1,0-0.2c0-0.4,0-0.5-0.4-0.5
		c-0.6,0-1.1,0-1.7,0c-0.3,0-0.4,0.1-0.5,0.4c-0.5,3.5-2.9,6.1-6.3,6.8c-0.2,0-0.4,0.1-0.6,0.1c-0.3,0-0.4,0.2-0.4,0.5
		c0,1.8,0,3.7,0,5.5c0,0.6-0.2,0.8-0.6,0.8c-0.4,0-0.6-0.3-0.6-0.8c0-0.5,0-1.1,0-1.6c0-0.5,0-0.6-0.5-0.6c-1.7-0.2-3.3-0.7-4.8-1.6
		c-2.8-1.7-4.6-4.1-5.4-7.3c-0.1-0.4,0-0.7,0.4-0.8c0.3-0.1,0.6,0.1,0.7,0.5c1,3.7,3.2,6.2,6.8,7.5c0.8,0.3,1.6,0.4,2.4,0.5
		c0.2,0,0.4-0.1,0.4-0.3c0-0.7,0-1.3,0-2c0-0.3-0.2-0.3-0.4-0.4c-1.9-0.3-3.6-1.1-4.9-2.5c-1.2-1.2-1.8-2.7-2-4.4
		c0-0.3-0.2-0.4-0.5-0.4c-1.9,0-3.7,0-5.6,0c-0.2,0-0.4-0.1-0.6-0.2C0,14.9,0,14.6,0,14.5c0.1-0.2,0.3-0.3,0.6-0.3
		c0.6,0,1.3,0,1.9,0c0.5,0,0.6,0,0.6-0.5c0.2-2.7,1.3-5,3.1-7C7.6,5,9.4,3.9,11.5,3.2c0.5-0.1,0.8,0,0.9,0.4
		c0.1,0.3-0.1,0.6-0.6,0.7c-3.5,1.1-5.9,3.4-7.1,6.9c-0.3,0.8-0.3,1.6-0.5,2.4c-0.1,0.3,0,0.4,0.4,0.4c0.6,0,1.1,0,1.7,0
		c0.3,0,0.4-0.1,0.4-0.4c0.4-2.9,2-5,4.6-6.3c0.7-0.4,1.5-0.6,2.3-0.7c0.3,0,0.4-0.2,0.4-0.5c0-1.8,0-3.7,0-5.5c0-0.1,0-0.3,0-0.4
		C14.2,0.1,14.4,0,14.6,0c0.3,0,0.5,0.1,0.5,0.4c0,0.1,0,0.3,0,0.4C15.2,1.8,15.2,2.9,15.2,3.9z"></path>
	<path d="M21.4,10.4c-1.1-0.3-1.8,0.3-2.6,1c-1.2,1.3-2.4,2.5-3.7,3.7c-0.1,0.1-0.4,0.3-0.6,0.3c-0.4,0-0.6-0.5-0.4-0.9
		c0.1-0.1,0.2-0.2,0.2-0.3c1.5-1.5,3-3,4.5-4.5c0.1-0.1,0.2-0.3,0.2-0.4c0-0.8,0-1.6,0-2.3c0-0.3,0.1-0.5,0.3-0.7
		c1.3-1.3,2.5-2.5,3.8-3.8c0.2-0.2,0.4-0.3,0.7-0.2c0.3,0.1,0.3,0.4,0.3,0.7c0,0.6,0,1.2,0,1.8c0,0.4,0.1,0.5,0.5,0.5
		c0.6,0,1.2,0,1.8,0c0.3,0,0.6,0.1,0.7,0.4c0.1,0.3,0,0.5-0.2,0.7c-1.3,1.2-2.5,2.5-3.8,3.8c-0.2,0.2-0.4,0.3-0.8,0.3
		C22.1,10.4,21.7,10.4,21.4,10.4z M20.2,8.1c0,0.3,0,0.5,0,0.8c0,0.3,0.1,0.4,0.4,0.4c0.5,0,1.1,0,1.6,0c0.1,0,0.2,0,0.3-0.1
		c0.8-0.7,1.5-1.5,2.2-2.3c0.1-0.1,0.1-0.3,0.1-0.4c0-0.1-0.2-0.2-0.3-0.2c-0.3,0-0.6,0-0.9,0c-0.3,0-0.6-0.2-0.6-0.6
		c0-0.2,0-0.5,0-0.7c0-0.2-0.1-0.3-0.2-0.5c-0.1,0.1-0.3,0.1-0.4,0.2c-0.5,0.5-1,1.1-1.6,1.6C20.4,6.9,20,7.4,20.2,8.1z"></path>
	<path d="M14.6,19.4c-2.5,0-4.6-2-4.7-4.4c-0.1-2.5,1.7-4.7,4.2-5c0.1,0,0.2,0,0.3,0c0.4,0,0.7,0.2,0.7,0.5c0,0.4-0.2,0.5-0.7,0.6
		c-0.5,0.1-1,0.2-1.4,0.4c-1.5,0.7-2.3,2.4-1.9,4c0.4,1.6,1.9,2.8,3.5,2.7c2,0,3.4-1.4,3.5-3.5c0-0.3,0.1-0.5,0.3-0.6
		c0.4-0.2,0.9,0.1,0.8,0.6c-0.1,1.8-0.8,3.1-2.4,4C16.3,19.2,15.5,19.4,14.6,19.4z"></path>
</g>
</svg>