<svg version="1.1" id="Layer_1" xmlns="http://www.w3.org/2000/svg" xmlns:xlink="http://www.w3.org/1999/xlink" x="0px" y="0px" viewBox="0 0 34.5 31" style="enable-background:new 0 0 34.5 31;" xml:space="preserve">
<style type="text/css">
	.st0{fill:#FAFAFA;}
	.st1{fill:#070707;}
	.st2{fill:#FCAD17;}
	.st3{fill:#FFFFFF;}
	.st4{fill:#FAAD18;}
	.st5{fill:#EAEFF4;}
	.st6{fill:#D9E3EC;}
	.st7{fill:#C6D3E3;}
	.st8{fill:url(#SVGID_1_);}
	.st9{fill:url(#SVGID_00000049207047254278814530000000359485045552700585_);}
	.st10{fill:#FAFBFD;}
	.st11{fill:url(#SVGID_00000039106887335318415200000014937492597822789526_);}
	.st12{fill:url(#SVGID_00000026127206359477141930000006821578771161746611_);}
	.st13{fill:#F4A631;}
	.st14{fill:#FFCF76;}
	.st15{fill:url(#SVGID_00000050641523570312990780000011447544195138047384_);}
	.st16{fill:url(#SVGID_00000175312608563089449010000013475603062190767749_);}
	.st17{fill:url(#SVGID_00000183932525178397357660000008401890753351230336_);}
	.st18{fill-rule:evenodd;clip-rule:evenodd;fill:#F4A631;}
	.st19{fill-rule:evenodd;clip-rule:evenodd;fill:#FFE6B8;}
	.st20{fill:#FFE6B8;}
	.st21{fill-rule:evenodd;clip-rule:evenodd;fill:#FFD792;}
	.st22{fill:#FFD792;}
	.st23{fill:#F4F6F9;}
	.st24{fill:#F7BB44;}
	.st25{fill-rule:evenodd;clip-rule:evenodd;fill:#FAFBFD;}
	.st26{fill-rule:evenodd;clip-rule:evenodd;fill:#D9E3EC;}
	.st27{fill-rule:evenodd;clip-rule:evenodd;fill:#FFCF76;}
	.st28{fill:url(#SVGID_00000100374622065672820600000010118469861018146994_);}
	.st29{fill-rule:evenodd;clip-rule:evenodd;fill:#FFDEA4;}
	.st30{fill:#FCBA39;}
	.st31{fill:url(#SVGID_00000013162814822441377810000005651290505470090162_);}
	.st32{fill:url(#SVGID_00000156582254948456452530000016406250797528424105_);}
	.st33{fill:url(#SVGID_00000001655278443366547050000011204750677608844175_);}
	.st34{fill:url(#SVGID_00000121972568363139301200000006331777000976194181_);}
	.st35{fill:url(#SVGID_00000148619535888237713830000014777715687867195326_);}
	.st36{fill:url(#SVGID_00000132796544620538914700000017330400067131148690_);}
	.st37{fill:url(#SVGID_00000072251971381980712920000006078370960678557347_);}
	.st38{fill:url(#SVGID_00000129194013803390942700000015064074624781881225_);}
	.st39{fill:url(#SVGID_00000077305900729163902370000004331805779779261833_);}
	.st40{fill:url(#SVGID_00000100366154081382156190000014069185961401587134_);}
	.st41{fill:#F5F7FB;}
	.st42{fill:url(#SVGID_00000092443961163861842010000002092828844934168746_);}
	.st43{fill-rule:evenodd;clip-rule:evenodd;fill:url(#SVGID_00000014611350733501470230000015614910956392784527_);}
	.st44{fill-rule:evenodd;clip-rule:evenodd;fill:#EE5635;}
	.st45{fill:#EE5635;}
	.st46{fill:#F4745B;}
	.st47{fill:#FFDEA4;}
	.st48{fill:url(#SVGID_00000038412776170517623740000004925068978292745886_);}
	.st49{fill:url(#SVGID_00000168818286574023062440000014022758947749850011_);}
	.st50{fill-rule:evenodd;clip-rule:evenodd;fill:#F7BB44;}
	.st51{fill:url(#SVGID_00000018200424686178614000000016218506151460772541_);}
	.st52{fill:url(#SVGID_00000010989996318217721040000014571261102270281394_);}
	.st53{fill-rule:evenodd;clip-rule:evenodd;fill:url(#SVGID_00000147941892053605417190000014094679906262924433_);}
	.st54{fill-rule:evenodd;clip-rule:evenodd;fill:#4A8DE6;}
	.st55{fill:url(#SVGID_00000042001949196989244520000012145135484341864862_);}
	.st56{fill-rule:evenodd;clip-rule:evenodd;fill:url(#SVGID_00000163778432551868061390000004799277258046223541_);}
	.st57{fill:url(#SVGID_00000081623588913319657110000008870697717469015426_);}
	.st58{fill-rule:evenodd;clip-rule:evenodd;fill:#5D9EF2;}
	.st59{fill:url(#SVGID_00000102511727670805185850000014471261337458041242_);}
	.st60{fill:url(#SVGID_00000083090264268825127510000003286795606521458064_);}
	.st61{fill:url(#SVGID_00000016041377998471000720000015069265358952014263_);}
	.st62{fill-rule:evenodd;clip-rule:evenodd;fill:#F2F4F9;}
	.st63{fill:url(#SVGID_00000147914205069160104520000009278031236448936123_);}
	.st64{fill:url(#SVGID_00000095304490360763232900000012619265799342531754_);}
	.st65{fill:url(#SVGID_00000075874853051408789330000008479764079412103574_);}
	.st66{fill:url(#SVGID_00000061435233883160998740000014211001206821153155_);}
	.st67{fill-rule:evenodd;clip-rule:evenodd;fill:#4CE400;}
	.st68{fill:#488A2E;}
	.st69{fill:url(#SVGID_00000007388082027602180690000005222534281780813709_);}
	.st70{fill:url(#SVGID_00000090279202032318250330000014880539836332549035_);}
	.st71{fill:url(#SVGID_00000121975444440453185260000011505437154073665202_);}
	.st72{fill:url(#SVGID_00000141447831707659701170000017186238995141658519_);}
	.st73{fill:url(#SVGID_00000081646985686760017580000010593118138182724496_);}
	.st74{fill:url(#SVGID_00000088818917281134284980000005646222619666367628_);}
	.st75{fill:url(#SVGID_00000073720150183769023770000012576039543967881889_);}
	.st76{fill:url(#SVGID_00000125587783625799153210000003709417909532781753_);}
	.st77{fill:#E7EDF3;}
	.st78{fill:url(#SVGID_00000044154716492932228470000001320750593106632892_);}
	.st79{fill:url(#SVGID_00000130632981806714212030000015081485217000350611_);}
	.st80{fill:url(#SVGID_00000146494170041047181550000006404458341560633763_);}
	.st81{fill:url(#SVGID_00000094587177775972010350000013706893019377946759_);}
	.st82{fill:url(#SVGID_00000112623406058056646360000011419372531756515713_);}
	.st83{fill:url(#SVGID_00000143608042629595729930000008308316262782530185_);}
	.st84{fill:url(#SVGID_00000100372607080787949980000001902725628514436486_);}
	.st85{fill:#F6F8FB;}
	.st86{fill:url(#SVGID_00000039107839273624504450000010816361227538420632_);}
	.st87{fill:url(#SVGID_00000167379154217720813750000011284629802508282260_);}
	.st88{fill:url(#SVGID_00000087382762646832293250000008002111609222359703_);}
	.st89{fill:url(#SVGID_00000181781174556711286250000007939287137804814997_);}
</style>
<g>
	<path d="M0,30.3C0.2,30,0.6,30,0.9,30c0.3,0,0.4-0.1,0.5-0.3c0.6-1.2,1.2-2.3,1.8-3.5c0.4-0.8,1-1.5,1.8-1.9c0.5-0.2,0.7-0.6,1-1.1
		c1.8-3.7,3.6-7.3,5.5-11c0.5-0.9,1.1-1.1,1.9-0.4c0.2,0.2,0.4,0.3,0.6,0.5c0.1-0.1,0.1-0.2,0.1-0.3c0.5-1.2,1-2.4,1.5-3.6
		c0.2-0.4,0.4-0.7,0.8-1c0.1-0.1,0.2-0.2,0.2-0.4c0-2.4,0-3.4,0-5.8c0-0.2,0-0.4,0-0.6c0-0.3,0.1-0.5,0.4-0.6c0.3,0,0.5,0.1,0.6,0.4
		c0,0,0,0.1,0.1,0.1c0.7,0,1.5,0,2.2,0c0.7,0,1.3,0,2,0c0.5,0,0.7,0.4,0.5,0.9c-0.3,0.4-0.6,0.8-0.8,1.3c0.3,0.4,0.5,0.8,0.8,1.2
		c0.1,0.2,0.3,0.4,0.1,0.6c-0.1,0.1-0.4,0.3-0.6,0.3c-1.3,0-2.5,0-3.8,0c-0.1,0-0.2,0-0.4,0c0,0.3,0,0.5,0,0.7c0,0.9,0,0.5,0,1.5
		c0,0.2,0,0.4,0.3,0.5c0.4,0.2,0.6,0.5,0.8,0.9c1.5,3.2,2.9,6.4,4.4,9.5c0.1,0.1,0.1,0.2,0.2,0.4c0.5-0.3,0.9-0.4,1.5-0.2
		c0.4,0.1,0.7,0.5,1,0.8c2.4,3.6,4.8,7.2,7.2,10.8c0.2,0.2,0.3,0.3,0.6,0.3c0.2,0,0.3,0,0.5,0c0.3,0,0.5,0.2,0.5,0.5
		c0,0.3-0.2,0.4-0.4,0.5c-0.1,0-0.2,0-0.3,0c-11,0-22,0-33,0c-0.3,0-0.6-0.1-0.7-0.3C0,30.6,0,30.4,0,30.3z M2.5,30
		c0.1,0,0.1,0,0.1,0c1.9,0,3.8,0,5.7,0c0.1,0,0.3-0.1,0.4-0.2c0.8-0.7,1.6-1.3,2.4-2c0.7-0.6,1.4-1.1,2.3-1.4
		c1.7-0.6,3.4-1.2,5.1-1.8c0.9-0.3,1.5-0.8,2-1.6c0.3-0.5,0.6-0.9,0.8-1.4c0.2-0.3,0.5-0.4,0.8-0.3c0.3,0.2,0.3,0.4,0.1,0.8
		c-0.3,0.5-0.6,1-0.9,1.5c-0.6,0.9-1.4,1.6-2.4,1.9c-1.4,0.5-2.7,1-4.1,1.5c-1.8,0.5-3.1,1.7-4.5,2.9c0,0,0,0,0,0
		c7.3,0,14.6,0,21.9,0c-0.3-0.4-0.5-0.8-0.8-1.1c-2.1-3.2-4.2-6.3-6.3-9.5c-0.4-0.6-0.8-0.6-1.2,0c-0.2,0.3-0.3,0.5-0.5,0.8
		c-0.2,0.3-0.5,0.3-0.7,0.2c-0.2-0.1-0.3-0.4-0.1-0.7c0.3-0.4,0.2-0.7,0-1.1c-0.1-0.2-0.2-0.4-0.3-0.6c-0.2-0.3-0.3-0.7-0.5-1
		c-0.2,0.1-0.3,0.2-0.4,0.3c-0.6,0.5-1.5,0.5-2.1-0.1c-0.5-0.5-0.8-0.4-1.1,0.2c-0.3,0.7-0.5,1.3-0.9,2c-0.4,0.7-1.2,1-1.9,0.6
		c-0.3-0.1-0.6-0.4-0.8-0.7c-0.5-0.7-1-1.4-1.5-2.1c-0.1,0.1-0.1,0.2-0.2,0.3c-0.4,0.8-0.7,1.7-1.1,2.5c-0.4,1-1,1.7-1.9,2.3
		c-1.5,0.9-2.9,1.8-4.4,2.7c-0.5,0.3-0.9,0.7-1.2,1.3c-0.6,1.1-1.1,2.1-1.7,3.2C2.5,29.8,2.5,29.9,2.5,30z M7.4,22.7
		C7.4,22.7,7.4,22.8,7.4,22.7c0.7-0.3,1.3-0.7,1.9-1.1c0.7-0.4,1.2-1,1.6-1.8c0.6-1.4,1.2-2.8,1.8-4.1c0.2-0.4,0.4-0.5,0.7-0.4
		c0.3,0.1,0.4,0.4,0.2,0.8c-0.1,0.2,0,0.3,0.1,0.5c0.6,0.8,1.2,1.6,1.7,2.4c0.4,0.5,0.8,0.4,1.1-0.1c0.3-0.6,0.5-1.2,0.8-1.8
		c0.1-0.3,0.4-0.6,0.6-0.8c0.6-0.4,1.4-0.3,1.9,0.2c0.4,0.4,0.7,0.4,1.1,0c0,0,0.1-0.1,0.1-0.1c0.2-0.1,0.2-0.3,0.1-0.5
		c-1.1-2.3-2.1-4.6-3.2-6.9c-0.1-0.1-0.1-0.2-0.2-0.4c-0.2-0.3-0.7-0.3-0.9,0c-0.1,0.1-0.1,0.2-0.2,0.4c-0.7,1.6-1.4,3.3-2.1,4.9
		c0,0.1-0.1,0.2-0.2,0.3c-0.2,0.2-0.4,0.3-0.6,0.2c-0.2-0.1-0.3-0.3-0.3-0.6c0-0.1,0.1-0.3,0.2-0.4c-0.4-0.3-0.7-0.6-1.1-0.9
		C10.8,15.8,9.1,19.3,7.4,22.7z M21.2,1.6c-1.2,0-2.3,0-3.4,0c0,0.7,0,1.5,0,2.2c1.1,0,2.2,0,3.4,0C21,3.5,20.8,3.2,20.7,3
		c-0.2-0.2-0.2-0.5,0-0.7C20.8,2.1,21,1.8,21.2,1.6z"></path>
</g>
</svg>