<?xml version="1.0" encoding="utf-8"?>
<!-- Generator: Adobe Illustrator 27.4.1, SVG Export Plug-In . SVG Version: 6.00 Build 0)  -->
<svg version="1.1" id="Layer_1" xmlns="http://www.w3.org/2000/svg" xmlns:xlink="http://www.w3.org/1999/xlink" x="0px" y="0px"
	 viewBox="0 0 407.8 148.3" style="enable-background:new 0 0 407.8 148.3;" xml:space="preserve">
<style type="text/css">
	.st0{fill:#FFFFFF;}
</style>
<path class="st0" d="M0,85.7h292.9l-38.3,46.5c-2.1,2.6-2.4,5.6-1.8,7.9c0.5,2.3,1.8,4.1,3.2,5.4c1.4,1.3,3.5,2.5,6.1,2.7
	c2.8,0.2,5.5-0.8,7.7-2.8l0.1-0.1v-0.1c20.5-21.9,39.4-36.7,59.9-46.3c20.4-9.6,42.7-14.5,70.1-16.2c2.6-0.1,4.8-1.3,6.2-3.2
	l-0.1,0.1c1.4-1.7,1.8-3.7,1.8-5.4c0-1.7-0.5-3.6-1.8-5.4c-1.4-1.8-3.7-3.1-6.2-3.2c-27.4-1.7-49.7-6.5-70-16.2
	c-20.4-9.7-39.2-24.3-59.3-46.3l-0.2-0.2l-0.2-0.2c-2.1-1.9-4.8-2.8-7.5-2.6c-2.6,0.2-4.7,1.3-6.2,2.7c-1.5,1.4-2.8,3.3-3.2,5.7
	c-0.5,2.5,0.1,5.4,2.2,7.7L293,62.6H0V85.7z"/>
</svg>
