<?xml version="1.0" encoding="utf-8"?>
<!-- Generator: Adobe Illustrator 27.4.1, SVG Export Plug-In . SVG Version: 6.00 Build 0)  -->
<svg version="1.1" id="Layer_1" xmlns="http://www.w3.org/2000/svg" xmlns:xlink="http://www.w3.org/1999/xlink" x="0px" y="0px"
	 viewBox="0 0 179.8 179.8" style="enable-background:new 0 0 179.8 179.8;" xml:space="preserve">
<style type="text/css">
	.st0{fill:#FFFFFF;}
</style>
<path d="M19.8,176.4L104.1,92l5.8,60c0.3,3.3,2.2,5.7,4.3,6.9c2,1.2,4.2,1.6,6.1,1.6c1.9-0.1,4.2-0.7,6.2-2.4
	c2.1-1.8,3.4-4.4,3.4-7.4l0-0.2l-0.1-0.1c-1-30,2-53.8,9.6-75.1c7.6-21.2,20-40.4,38.1-61c1.7-1.9,2.5-4.3,2.1-6.7v0.1
	c-0.3-2.2-1.3-3.9-2.5-5.1c-1.2-1.2-2.9-2.2-5.1-2.5c-2.3-0.3-4.8,0.4-6.7,2.1c-20.6,18.2-39.8,30.5-61,38.1
	c-21.3,7.6-44.9,10.5-74.7,9.2h-0.3l-0.3,0c-2.9,0.2-5.4,1.4-7.2,3.5c-1.7,1.9-2.4,4.2-2.4,6.3c-0.1,2,0.4,4.3,1.8,6.3
	c1.4,2.1,3.9,3.8,7,3.9l59.5,6.1L3.4,160c-4.5,4.5-4.5,11.9,0,16.4l0,0C7.9,180.9,15.3,180.9,19.8,176.4z"/>
</svg>
