<?xml version="1.0" encoding="utf-8"?>
<!-- Generator: Adobe Illustrator 27.4.1, SVG Export Plug-In . SVG Version: 6.00 Build 0)  -->
<svg version="1.1" id="Layer_1" xmlns="http://www.w3.org/2000/svg" xmlns:xlink="http://www.w3.org/1999/xlink" x="0px" y="0px"
	 viewBox="0 0 442.2 120.5" style="enable-background:new 0 0 442.2 120.5;" xml:space="preserve">
<style type="text/css">
	.st0{fill:#565A5B;}
	.st1{fill:#F9B531;}
	.st2{fill:#FFFFFF;}
</style>
<g>
	<g>
		<path class="st0" d="M275.8,64.6L275.8,64.6l6.5-17.7l6.2,17.7H275.8z M278.4,37L278.4,37l-17.1,44.9h9l4.1-11.2H290l4.2,11.2h9
			L286.1,37H278.4z M247.4,54.8L247.4,54.8c-0.3,0.9-0.7,1.7-1.2,2.3c-0.5,0.7-1.1,1.2-1.8,1.6c-0.7,0.4-1.4,0.6-2.2,0.6h-10.9V44.6
			h10.6c0.8,0,1.5,0.2,2.3,0.5c0.7,0.4,1.4,0.9,2,1.5c0.6,0.7,1,1.4,1.4,2.3c0.3,0.9,0.5,1.9,0.5,2.9
			C247.8,52.9,247.7,53.9,247.4,54.8z M254.5,59.9L254.5,59.9c1.5-2.4,2.2-5,2.2-7.9c0-1.8-0.4-3.6-1.1-5.4c-0.7-1.8-1.7-3.4-3-4.8
			c-1.3-1.4-2.8-2.5-4.5-3.4c-1.8-0.9-3.7-1.3-5.7-1.3h-19.9v44.9h8.7V66.8h8.6l9.2,15.1h9.8L248.5,65C251,64,253,62.2,254.5,59.9z
			 M340.1,66.5L340.1,66.5L316.7,37h-6.8v44.9h8.7V53.1l23.1,28.8h7.1V37h-8.7V66.5z M388.7,65.3L388.7,65.3
			c-0.6,1.8-1.4,3.4-2.6,4.7c-1.1,1.3-2.5,2.4-4.2,3.1c-1.7,0.8-3.6,1.1-5.7,1.1h-7.6V44.6h7.6c2.1,0,4,0.4,5.7,1.1
			c1.7,0.7,3.1,1.7,4.2,3c1.1,1.3,2,2.9,2.6,4.7c0.6,1.8,0.9,3.8,0.9,5.9C389.6,61.5,389.3,63.5,388.7,65.3z M397,50.7L397,50.7
			c-0.9-2.7-2.3-5.1-4.2-7.1c-1.9-2-4.2-3.6-6.9-4.8c-2.8-1.2-6-1.8-9.7-1.8H360v44.9h16.3c3.4,0,6.4-0.5,9.1-1.6
			c2.7-1.1,5.1-2.6,7-4.6c1.9-2,3.4-4.3,4.5-7.1c1-2.8,1.5-5.8,1.5-9.3C398.4,56.3,398,53.4,397,50.7z M31.1,70.9L31.1,70.9
			c-0.8,0.9-1.8,1.6-2.8,2.1c-1,0.6-2,0.9-3.1,1.2c-1.1,0.3-2.2,0.4-3.2,0.4c-1.9,0-3.7-0.4-5.3-1.3c-1.6-0.8-3-2-4.2-3.3
			c-1.2-1.4-2.1-3-2.7-4.8c-0.6-1.8-0.9-3.7-0.9-5.7c0-1.8,0.3-3.6,0.8-5.3c0.5-1.8,1.4-3.4,2.4-4.8c1.1-1.4,2.4-2.6,4-3.4
			c1.6-0.9,3.5-1.3,5.7-1.3c1,0,2,0.1,3.1,0.4c1.1,0.2,2.1,0.6,3,1.1c1,0.5,1.9,1.2,2.7,2.1c0.8,0.9,1.6,1.9,2.2,3.2l6.7-4.6
			c-1.5-2.9-3.7-5.3-6.7-7.1c-3-1.8-6.6-2.7-10.7-2.7c-3.5,0-6.6,0.7-9.4,2c-2.7,1.3-5.1,3-7,5.1c-1.9,2.1-3.3,4.5-4.3,7.2
			c-1,2.7-1.5,5.4-1.5,8.1c0,2.9,0.5,5.7,1.6,8.4c1.1,2.8,2.6,5.2,4.5,7.4c1.9,2.2,4.2,3.9,6.9,5.3c2.7,1.4,5.6,2,8.8,2
			c1.8,0,3.7-0.2,5.6-0.7c1.9-0.5,3.7-1.1,5.3-2c1.7-0.9,3.2-2,4.5-3.3c1.3-1.3,2.4-2.8,3.1-4.5l-7.2-4.1C32.6,69,31.9,70,31.1,70.9
			z M57.4,64.6L57.4,64.6l6.5-17.7l6.2,17.7H57.4z M60,37L60,37L42.9,81.9h9L56,70.7h15.7l4.2,11.2h9L67.8,37H60z M197,65.2
			L197,65.2h9.1v3.2c-3.5,4.1-7.4,6.1-11.8,6.1c-1.9,0-3.7-0.4-5.3-1.2c-1.6-0.8-3-1.8-4.2-3.2c-1.2-1.4-2.1-2.9-2.8-4.8
			c-0.7-1.8-1-3.8-1-5.9c0-2,0.3-3.9,0.9-5.8c0.6-1.8,1.5-3.4,2.6-4.8c1.1-1.4,2.5-2.5,4-3.3c1.6-0.8,3.3-1.2,5.2-1.2
			c2.4,0,4.6,0.6,6.7,1.8c2,1.2,3.6,2.9,4.8,5.1l6.5-4.8c-1.5-3-3.8-5.4-6.8-7.2c-3-1.8-6.6-2.7-10.8-2.7c-3.1,0-6,0.6-8.7,1.8
			c-2.7,1.2-5,2.8-6.9,4.9c-2,2-3.5,4.4-4.6,7.2c-1.1,2.7-1.7,5.6-1.7,8.7c0,3.2,0.6,6.3,1.7,9.1c1.1,2.8,2.6,5.2,4.6,7.3
			c1.9,2.1,4.2,3.7,6.8,4.9c2.6,1.2,5.4,1.8,8.3,1.8c4.8,0,8.9-1.8,12.5-5.4v5.1h7.2V58.8H197V65.2z M140.8,64.6L140.8,64.6
			l6.5-17.7l6.2,17.7H140.8z M143.4,37L143.4,37l-17.2,44.9h9l4.1-11.2h15.7l4.2,11.2h9L151.1,37H143.4z M119.2,60.2
			c-1.2-1-2.8-1.9-4.6-2.5c-1.8-0.7-3.8-1.3-6-1.9c-1.7-0.4-3.2-0.8-4.5-1.2c-1.3-0.4-2.4-0.8-3.2-1.3c-0.8-0.5-1.5-1-1.9-1.6
			c-0.4-0.6-0.7-1.4-0.7-2.3c0-1.6,0.6-2.9,1.8-3.7c1.2-0.9,3-1.3,5.4-1.3c1.3,0,2.7,0.2,4,0.5c1.3,0.3,2.5,0.7,3.6,1.2
			c1.1,0.5,2.1,1,2.8,1.5c0.8,0.5,1.3,0.9,1.6,1.2l3.9-7.1c-2-1.4-4.3-2.5-7-3.5c-2.7-1-5.6-1.5-8.7-1.5c-2.3,0-4.4,0.3-6.4,0.9
			c-2,0.6-3.7,1.5-5.2,2.7c-1.5,1.2-2.7,2.7-3.5,4.4c-0.8,1.8-1.3,3.8-1.3,6.1c0,1.7,0.3,3.2,0.8,4.5c0.5,1.2,1.3,2.3,2.4,3.3
			c1.1,0.9,2.4,1.8,4,2.5c1.6,0.7,3.5,1.3,5.6,1.9c1.8,0.5,3.4,1,4.8,1.4c1.4,0.4,2.7,0.9,3.7,1.4c1,0.5,1.8,1.1,2.3,1.8
			c0.5,0.7,0.8,1.5,0.8,2.5c0,3.1-2.4,4.6-7.2,4.6c-1.7,0-3.4-0.2-5.1-0.6c-1.6-0.4-3.1-0.9-4.5-1.5c-1.3-0.6-2.5-1.2-3.5-1.8
			c-1-0.6-1.7-1.1-2.1-1.5l-3.9,7.5c2.6,1.9,5.6,3.3,8.9,4.3c3.3,1,6.6,1.5,10,1.5c2.2,0,4.3-0.2,6.3-0.7c2-0.5,3.8-1.3,5.3-2.3
			c1.5-1.1,2.8-2.4,3.7-4.1c0.9-1.7,1.4-3.8,1.4-6.2c0-2.1-0.3-3.8-1-5.2C121.4,62.4,120.4,61.2,119.2,60.2z"/>
		<polygon class="st1" points="442.2,0 387.4,0 360,27.4 414.9,27.4 414.9,27.6 414.8,82.2 425.4,71.7 425.4,43.7 434.4,34.7 
			434.4,62.6 442.2,54.8 442.2,0 		"/>
	</g>
	<rect x="5.7" y="92" class="st0" width="392.7" height="28.5"/>
	<g>
		<path class="st2" d="M19.2,112.4v-12h4v12H19.2z"/>
		<path class="st2" d="M29,112.4v-12h3.3l6.1,7.3h-1.5v-7.3h3.9v12h-3.3l-6.1-7.3h1.5v7.3H29z"/>
		<path class="st2" d="M46.5,112.4v-12h5.9c1.3,0,2.5,0.2,3.5,0.7s1.8,1.2,2.4,2.1c0.6,0.9,0.9,2,0.9,3.2c0,1.2-0.3,2.3-0.9,3.2
			c-0.6,0.9-1.4,1.6-2.4,2.1s-2.2,0.7-3.5,0.7H46.5z M50.6,109.3h1.7c0.6,0,1.1-0.1,1.5-0.3s0.8-0.5,1-1c0.2-0.4,0.4-1,0.4-1.6
			c0-0.6-0.1-1.1-0.4-1.5c-0.2-0.4-0.6-0.7-1-1s-0.9-0.3-1.5-0.3h-1.7V109.3z"/>
		<path class="st2" d="M70.2,112.7c-1.8,0-3.3-0.5-4.3-1.5c-1-1-1.5-2.4-1.5-4.2v-6.6h4v6.5c0,0.9,0.2,1.6,0.5,1.9
			c0.3,0.4,0.8,0.6,1.3,0.6c0.6,0,1-0.2,1.3-0.6c0.3-0.4,0.5-1,0.5-1.9v-6.5h4v6.6c0,1.8-0.5,3.2-1.5,4.2
			C73.4,112.2,72,112.7,70.2,112.7z"/>
		<path class="st2" d="M86.1,112.7c-1,0-2-0.1-2.9-0.3c-0.9-0.2-1.7-0.5-2.3-0.9l1.3-2.9c0.6,0.3,1.2,0.6,1.9,0.8
			c0.7,0.2,1.4,0.3,2,0.3c0.4,0,0.7,0,0.9-0.1c0.2-0.1,0.4-0.1,0.5-0.2c0.1-0.1,0.2-0.2,0.2-0.4c0-0.2-0.1-0.4-0.4-0.5
			c-0.2-0.1-0.6-0.2-1-0.3s-0.8-0.2-1.3-0.3c-0.5-0.1-0.9-0.2-1.4-0.4c-0.5-0.2-0.9-0.4-1.3-0.6c-0.4-0.3-0.7-0.6-1-1
			c-0.2-0.4-0.4-1-0.4-1.6c0-0.7,0.2-1.4,0.6-2c0.4-0.6,1-1.1,1.9-1.5c0.8-0.4,1.9-0.5,3.1-0.5c0.8,0,1.6,0.1,2.4,0.3
			c0.8,0.2,1.5,0.4,2.1,0.8l-1.2,2.9c-0.6-0.3-1.2-0.5-1.7-0.7c-0.6-0.1-1.1-0.2-1.6-0.2c-0.4,0-0.7,0-0.9,0.1s-0.4,0.2-0.5,0.3
			c-0.1,0.1-0.1,0.2-0.1,0.4c0,0.2,0.1,0.4,0.4,0.5c0.2,0.1,0.6,0.2,1,0.3c0.4,0.1,0.8,0.2,1.3,0.3c0.5,0.1,0.9,0.2,1.4,0.4
			c0.5,0.2,0.9,0.4,1.3,0.6c0.4,0.3,0.7,0.6,1,1s0.4,0.9,0.4,1.6c0,0.7-0.2,1.4-0.6,2c-0.4,0.6-1,1.1-1.9,1.5
			C88.4,112.5,87.3,112.7,86.1,112.7z"/>
		<path class="st2" d="M99,112.4v-8.8h-3.5v-3.1h11.1v3.1h-3.5v8.8H99z"/>
		<path class="st2" d="M111.4,112.4v-12h5.8c1.1,0,2.1,0.2,2.9,0.5s1.4,0.9,1.9,1.6s0.7,1.5,0.7,2.4c0,0.9-0.2,1.7-0.7,2.4
			c-0.4,0.7-1.1,1.2-1.9,1.5c-0.8,0.4-1.8,0.5-2.9,0.5h-3.5l1.8-1.7v4.7H111.4z M115.4,108.2l-1.8-1.8h3.3c0.6,0,1-0.1,1.2-0.4
			c0.3-0.3,0.4-0.6,0.4-1c0-0.4-0.1-0.8-0.4-1c-0.3-0.3-0.7-0.4-1.2-0.4h-3.3l1.8-1.8V108.2z M118.6,112.4l-2.9-4.4h4.3l3,4.4H118.6
			z"/>
		<path class="st2" d="M127.9,112.4v-12h4v12H127.9z"/>
		<path class="st2" d="M136.4,112.4l5.2-12h4l5.2,12h-4.2l-3.9-10.1h1.6l-3.9,10.1H136.4z M139.5,110.3l1-2.9h5.5l1,2.9H139.5z"/>
		<path class="st2" d="M155.2,112.4v-12h4v8.8h5.4v3.1H155.2z"/>
		<path class="st2" d="M182.9,112.7c-1,0-1.8-0.2-2.6-0.5c-0.8-0.3-1.3-0.7-1.8-1.2c-0.4-0.5-0.7-1.1-0.7-1.8s0.1-1.2,0.4-1.8
			c0.3-0.5,0.7-1,1.4-1.4s1.4-0.8,2.3-1.1c0.6-0.2,1-0.4,1.3-0.6c0.3-0.2,0.6-0.4,0.7-0.5c0.1-0.2,0.2-0.3,0.2-0.5
			c0-0.2-0.1-0.3-0.2-0.4c-0.1-0.1-0.3-0.2-0.5-0.2c-0.3,0-0.5,0.1-0.6,0.2c-0.1,0.1-0.2,0.3-0.2,0.5c0,0.1,0,0.3,0.1,0.4
			c0.1,0.1,0.2,0.3,0.4,0.5s0.4,0.4,0.8,0.7l6.3,5.4l-2.1,2.3l-7.3-6.2c-0.4-0.3-0.7-0.6-1-1s-0.4-0.7-0.6-1c-0.1-0.3-0.2-0.7-0.2-1
			c0-0.6,0.2-1.2,0.5-1.7s0.9-0.9,1.5-1.1c0.6-0.3,1.4-0.4,2.3-0.4c0.8,0,1.5,0.1,2.1,0.4c0.6,0.2,1.1,0.6,1.4,1.1
			c0.3,0.5,0.5,1,0.5,1.6c0,0.5-0.1,1-0.4,1.5s-0.7,0.9-1.3,1.2s-1.3,0.7-2.2,1c-0.5,0.2-0.8,0.3-1.1,0.5s-0.5,0.4-0.6,0.6
			c-0.1,0.2-0.2,0.4-0.2,0.7c0,0.2,0.1,0.4,0.2,0.5c0.1,0.2,0.3,0.3,0.5,0.4c0.2,0.1,0.5,0.1,0.8,0.1c0.6,0,1.2-0.2,1.7-0.5
			s1-0.8,1.4-1.4c0.4-0.6,0.7-1.4,0.8-2.2l3.1,0.9c-0.3,1.2-0.7,2.2-1.4,3.1s-1.5,1.6-2.6,2.1C185.3,112.4,184.2,112.7,182.9,112.7z
			"/>
		<path class="st2" d="M207.5,112.4l-3.8-12h4.2l3.1,10.1h-2.1l3.3-10.1h3.7l3.1,10.1h-2l3.2-10.1h3.8l-3.8,12h-4.3l-2.5-8.3h1.2
			l-2.6,8.3H207.5z"/>
		<path class="st2" d="M226.9,112.4l5.2-12h4l5.2,12h-4.2l-3.9-10.1h1.6l-3.9,10.1H226.9z M230,110.3l1-2.9h5.5l1,2.9H230z"/>
		<path class="st2" d="M245.7,112.4v-12h5.8c1.1,0,2.1,0.2,2.9,0.5s1.4,0.9,1.9,1.6s0.7,1.5,0.7,2.4c0,0.9-0.2,1.7-0.7,2.4
			c-0.4,0.7-1.1,1.2-1.9,1.5c-0.8,0.4-1.8,0.5-2.9,0.5H248l1.8-1.7v4.7H245.7z M249.8,108.2l-1.8-1.8h3.3c0.6,0,1-0.1,1.2-0.4
			c0.3-0.3,0.4-0.6,0.4-1c0-0.4-0.1-0.8-0.4-1c-0.3-0.3-0.7-0.4-1.2-0.4H248l1.8-1.8V108.2z M252.9,112.4l-2.9-4.4h4.3l3,4.4H252.9z
			"/>
		<path class="st2" d="M266.2,109.4h6v3h-10v-12h9.7v3h-5.8V109.4z M265.9,104.9h5.3v2.9h-5.3V104.9z"/>
		<path class="st2" d="M281.6,112.4h-4v-12h4V112.4z M285.6,108h-4.3v-3.3h4.3V108z M285.3,100.4h4v12h-4V100.4z"/>
		<path class="st2" d="M301.4,112.7c-1,0-1.9-0.2-2.7-0.5c-0.8-0.3-1.5-0.7-2.1-1.3c-0.6-0.6-1.1-1.2-1.4-2
			c-0.3-0.8-0.5-1.6-0.5-2.5c0-0.9,0.2-1.7,0.5-2.5c0.3-0.8,0.8-1.4,1.4-2c0.6-0.6,1.3-1,2.1-1.3c0.8-0.3,1.7-0.5,2.7-0.5
			c1,0,1.9,0.2,2.7,0.5c0.8,0.3,1.5,0.7,2.1,1.3c0.6,0.6,1.1,1.2,1.4,2c0.3,0.8,0.5,1.6,0.5,2.5c0,0.9-0.2,1.7-0.5,2.5
			c-0.3,0.8-0.8,1.4-1.4,2c-0.6,0.6-1.3,1-2.1,1.3C303.2,112.5,302.3,112.7,301.4,112.7z M301.3,109.4c0.4,0,0.7-0.1,1.1-0.2
			s0.6-0.3,0.9-0.6c0.2-0.3,0.4-0.6,0.6-0.9c0.1-0.4,0.2-0.8,0.2-1.3s-0.1-0.9-0.2-1.3c-0.1-0.4-0.3-0.7-0.6-0.9
			c-0.2-0.3-0.5-0.5-0.9-0.6s-0.7-0.2-1.1-0.2s-0.7,0.1-1.1,0.2s-0.6,0.3-0.9,0.6c-0.2,0.3-0.4,0.6-0.6,0.9
			c-0.1,0.4-0.2,0.8-0.2,1.3s0.1,0.9,0.2,1.3c0.1,0.4,0.3,0.7,0.6,0.9c0.2,0.3,0.5,0.5,0.9,0.6S301,109.4,301.3,109.4z"/>
		<path class="st2" d="M319.1,112.7c-1.8,0-3.3-0.5-4.3-1.5c-1-1-1.5-2.4-1.5-4.2v-6.6h4v6.5c0,0.9,0.2,1.6,0.5,1.9
			c0.3,0.4,0.8,0.6,1.3,0.6c0.6,0,1-0.2,1.3-0.6c0.3-0.4,0.5-1,0.5-1.9v-6.5h4v6.6c0,1.8-0.5,3.2-1.5,4.2
			C322.3,112.2,320.9,112.7,319.1,112.7z"/>
		<path class="st2" d="M335,112.7c-1,0-2-0.1-2.9-0.3c-0.9-0.2-1.7-0.5-2.3-0.9l1.3-2.9c0.6,0.3,1.2,0.6,1.9,0.8
			c0.7,0.2,1.4,0.3,2,0.3c0.4,0,0.7,0,0.9-0.1c0.2-0.1,0.4-0.1,0.5-0.2c0.1-0.1,0.2-0.2,0.2-0.4c0-0.2-0.1-0.4-0.4-0.5
			c-0.2-0.1-0.6-0.2-1-0.3s-0.8-0.2-1.3-0.3c-0.5-0.1-0.9-0.2-1.4-0.4c-0.5-0.2-0.9-0.4-1.3-0.6c-0.4-0.3-0.7-0.6-1-1
			c-0.2-0.4-0.4-1-0.4-1.6c0-0.7,0.2-1.4,0.6-2c0.4-0.6,1-1.1,1.9-1.5c0.8-0.4,1.9-0.5,3.1-0.5c0.8,0,1.6,0.1,2.4,0.3
			c0.8,0.2,1.5,0.4,2.1,0.8l-1.2,2.9c-0.6-0.3-1.2-0.5-1.7-0.7c-0.6-0.1-1.1-0.2-1.6-0.2c-0.4,0-0.7,0-0.9,0.1s-0.4,0.2-0.5,0.3
			c-0.1,0.1-0.1,0.2-0.1,0.4c0,0.2,0.1,0.4,0.4,0.5c0.2,0.1,0.6,0.2,1,0.3c0.4,0.1,0.8,0.2,1.3,0.3c0.5,0.1,0.9,0.2,1.4,0.4
			c0.5,0.2,0.9,0.4,1.3,0.6c0.4,0.3,0.7,0.6,1,1s0.4,0.9,0.4,1.6c0,0.7-0.2,1.4-0.6,2c-0.4,0.6-1,1.1-1.9,1.5
			C337.3,112.5,336.2,112.7,335,112.7z"/>
		<path class="st2" d="M345.5,112.4v-12h4v12H345.5z"/>
		<path class="st2" d="M355.3,112.4v-12h3.3l6.1,7.3h-1.5v-7.3h3.9v12h-3.3l-6.1-7.3h1.5v7.3H355.3z"/>
		<path class="st2" d="M379,112.7c-1,0-1.9-0.2-2.7-0.5c-0.8-0.3-1.5-0.7-2.1-1.3c-0.6-0.6-1.1-1.2-1.4-2c-0.3-0.8-0.5-1.6-0.5-2.5
			c0-0.9,0.2-1.8,0.5-2.5c0.3-0.8,0.8-1.4,1.4-2c0.6-0.6,1.3-1,2.1-1.3c0.8-0.3,1.7-0.5,2.7-0.5c1.2,0,2.2,0.2,3.2,0.6
			c0.9,0.4,1.7,1,2.3,1.7l-2.6,2.3c-0.4-0.4-0.8-0.8-1.2-1c-0.4-0.2-0.9-0.3-1.5-0.3c-0.4,0-0.8,0.1-1.2,0.2s-0.7,0.3-0.9,0.6
			c-0.3,0.3-0.4,0.6-0.6,0.9c-0.1,0.4-0.2,0.8-0.2,1.2c0,0.4,0.1,0.9,0.2,1.2c0.1,0.4,0.3,0.7,0.6,1s0.6,0.5,0.9,0.6
			c0.3,0.1,0.7,0.2,1.2,0.2c0.5,0,0.9-0.1,1.3-0.2c0.4-0.2,0.9-0.4,1.4-0.8l2.3,2.8c-0.7,0.5-1.6,0.9-2.5,1.1S379.9,112.7,379,112.7
			z M380.7,110.7v-4.6h3.5v5.1L380.7,110.7z"/>
	</g>
</g>
</svg>
