<svg version="1.1" id="Layer_1" xmlns="http://www.w3.org/2000/svg" xmlns:xlink="http://www.w3.org/1999/xlink" x="0px" y="0px" viewBox="0 0 26.8 32.7" style="enable-background:new 0 0 26.8 32.7;" xml:space="preserve">
<style type="text/css">
	.st0{fill:#FAFAFA;}
	.st1{fill:#070707;}
	.st2{fill:#FCAD17;}
	.st3{fill:#FFFFFF;}
	.st4{fill:#FAAD18;}
	.st5{fill:#EAEFF4;}
	.st6{fill:#D9E3EC;}
	.st7{fill:#C6D3E3;}
	.st8{fill:url(#SVGID_1_);}
	.st9{fill:url(#SVGID_00000038377252933202609540000012378730656478670773_);}
	.st10{fill:#FAFBFD;}
	.st11{fill:url(#SVGID_00000070110461124024799240000013157419090189126816_);}
	.st12{fill:url(#SVGID_00000124154856221883611370000014029947779204660903_);}
	.st13{fill:#F4A631;}
	.st14{fill:#FFCF76;}
	.st15{fill:url(#SVGID_00000108286879838513987840000004679380820879030707_);}
	.st16{fill:url(#SVGID_00000112598001663006913920000014657408063407528071_);}
	.st17{fill:url(#SVGID_00000078024471050446921350000005448786013428378800_);}
	.st18{fill-rule:evenodd;clip-rule:evenodd;fill:#F4A631;}
	.st19{fill-rule:evenodd;clip-rule:evenodd;fill:#FFE6B8;}
	.st20{fill:#FFE6B8;}
	.st21{fill-rule:evenodd;clip-rule:evenodd;fill:#FFD792;}
	.st22{fill:#FFD792;}
	.st23{fill:#F4F6F9;}
	.st24{fill:#F7BB44;}
	.st25{fill-rule:evenodd;clip-rule:evenodd;fill:#FAFBFD;}
	.st26{fill-rule:evenodd;clip-rule:evenodd;fill:#D9E3EC;}
	.st27{fill-rule:evenodd;clip-rule:evenodd;fill:#FFCF76;}
	.st28{fill:url(#SVGID_00000165203033681872673720000005386511905720508334_);}
	.st29{fill-rule:evenodd;clip-rule:evenodd;fill:#FFDEA4;}
	.st30{fill:#FCBA39;}
	.st31{fill:url(#SVGID_00000018951835926595963800000009582702690487981754_);}
	.st32{fill:url(#SVGID_00000161598985968589552530000000906891475809731255_);}
	.st33{fill:url(#SVGID_00000031900113900214414500000013384612979162324388_);}
	.st34{fill:url(#SVGID_00000066483546638902510650000015601203470138429368_);}
	.st35{fill:url(#SVGID_00000073696192153442528600000000936173026320430781_);}
	.st36{fill:url(#SVGID_00000145753729295099475560000011501312413819592866_);}
	.st37{fill:url(#SVGID_00000122699010787927443520000013493053283669094796_);}
	.st38{fill:url(#SVGID_00000028313824872681232360000002103875828643718583_);}
	.st39{fill:url(#SVGID_00000090984333566452301800000002282499286806441347_);}
	.st40{fill:url(#SVGID_00000078741819382702634810000005857267898941926528_);}
	.st41{fill:#F5F7FB;}
	.st42{fill:url(#SVGID_00000070111029853967510010000011807943042946097819_);}
	.st43{fill-rule:evenodd;clip-rule:evenodd;fill:url(#SVGID_00000137819259760285488970000003203331139859722411_);}
	.st44{fill-rule:evenodd;clip-rule:evenodd;fill:#EE5635;}
	.st45{fill:#EE5635;}
	.st46{fill:#F4745B;}
	.st47{fill:#FFDEA4;}
	.st48{fill:url(#SVGID_00000052094329938176927040000010497229330527312519_);}
	.st49{fill:url(#SVGID_00000101795805062393409860000011485956636142335920_);}
	.st50{fill-rule:evenodd;clip-rule:evenodd;fill:#F7BB44;}
	.st51{fill:url(#SVGID_00000016783323344431296980000018386805233352991912_);}
	.st52{fill:url(#SVGID_00000151539077950029156880000004910605178102248608_);}
	.st53{fill-rule:evenodd;clip-rule:evenodd;fill:url(#SVGID_00000081609121941182799400000008705584564202119829_);}
	.st54{fill-rule:evenodd;clip-rule:evenodd;fill:#4A8DE6;}
	.st55{fill:url(#SVGID_00000052813682831641572510000012544702020430994835_);}
	.st56{fill-rule:evenodd;clip-rule:evenodd;fill:url(#SVGID_00000041997029974559769000000013263725618693571762_);}
	.st57{fill:url(#SVGID_00000076568772934370149360000015297980381938816141_);}
	.st58{fill-rule:evenodd;clip-rule:evenodd;fill:#5D9EF2;}
	.st59{fill:url(#SVGID_00000176747535071953672720000018203190937209874060_);}
	.st60{fill:url(#SVGID_00000033367352116473300450000018055301040206034820_);}
	.st61{fill:url(#SVGID_00000047044081757535793470000004959883269959192962_);}
	.st62{fill-rule:evenodd;clip-rule:evenodd;fill:#F2F4F9;}
	.st63{fill:url(#SVGID_00000068666894246709595640000004768880667488810117_);}
	.st64{fill:url(#SVGID_00000013154898617230977000000008604814040063147916_);}
	.st65{fill:url(#SVGID_00000154400490741607411510000015884935634927712437_);}
	.st66{fill:url(#SVGID_00000101825029864273906590000014513549902175742113_);}
	.st67{fill-rule:evenodd;clip-rule:evenodd;fill:#4CE400;}
	.st68{fill:#488A2E;}
	.st69{fill:url(#SVGID_00000130605107793584119650000008902934374278571423_);}
	.st70{fill:url(#SVGID_00000119114790468921713260000006612717255262389160_);}
	.st71{fill:url(#SVGID_00000087398877119412729300000003595423486460258722_);}
	.st72{fill:url(#SVGID_00000176001544840798029710000007088568626029383580_);}
	.st73{fill:url(#SVGID_00000149377668973717901060000016716590130952648636_);}
	.st74{fill:url(#SVGID_00000124841162312791541390000009250243798576285094_);}
	.st75{fill:url(#SVGID_00000004548027859332712750000001945087216307243155_);}
	.st76{fill:url(#SVGID_00000072960428072920943710000012907944985125012354_);}
	.st77{fill:#E7EDF3;}
	.st78{fill:url(#SVGID_00000167378653914260788280000015292758122667186879_);}
	.st79{fill:url(#SVGID_00000103944905111952825620000017139563452621731505_);}
	.st80{fill:url(#SVGID_00000112610752126045410110000007782431409438721433_);}
	.st81{fill:url(#SVGID_00000070804284511665408990000010177718420882560665_);}
	.st82{fill:url(#SVGID_00000020385192546553644410000000434860845893072269_);}
	.st83{fill:url(#SVGID_00000121961544219377676380000011833565136973175178_);}
	.st84{fill:url(#SVGID_00000002372185832281570940000014061895505547187119_);}
	.st85{fill:#F6F8FB;}
	.st86{fill:url(#SVGID_00000075136002943162966700000004845582933822015115_);}
	.st87{fill:url(#SVGID_00000148656396623220145150000015229406944494420366_);}
	.st88{fill:url(#SVGID_00000128468452907938760970000007464694750995933835_);}
	.st89{fill:url(#SVGID_00000010270611884490596230000010865294927338174637_);}
</style>
<g>
	<path d="M6.9,3.2c1.5,0.2,2.7-0.3,3.7-1.5c0.3-0.4,0.8-0.7,1.2-1.1c1-0.8,2.1-0.8,3.1,0C15.5,1,16,1.5,16.5,2
		c0.8,0.9,1.7,1.2,2.8,1.2c0.7,0,1.3,0,2,0.1c1.6,0.2,2.3,1.1,2.4,2.6c0,0.8,0,1.6,0,2.3c0,0.7,0.3,1.2,0.8,1.7
		c0.6,0.6,1.2,1.3,1.8,1.9c0.6,0.8,0.8,1.6,0.3,2.6c-0.2,0.4-0.4,0.7-0.7,1c-0.5,0.5-1,1-1.5,1.5c-0.4,0.4-0.7,1-0.7,1.6
		c0,0.5,0,1,0,1.5c0,0.4,0,0.7,0,1.1c-0.2,1.7-1,2.4-2.7,2.5c-0.7,0-1.4,0-2.1,0c-0.7,0-1.3,0.2-1.8,0.8c-0.4,0.4-0.7,0.7-1.1,1.1
		c-0.2,0.2-0.3,0.3-0.5,0.5c-1.3,1.1-2.5,1.1-3.9,0c-0.5-0.4-1-0.9-1.4-1.4c-0.6-0.6-1.2-0.9-2.1-0.9c-0.8,0-1.5,0-2.3-0.1
		c-1.7-0.2-2.4-1-2.5-2.8c0-0.7,0-1.3,0-2c0-0.8-0.3-1.4-0.8-2c-0.6-0.6-1.2-1.1-1.7-1.8c-0.9-1.1-0.9-2.2,0-3.3
		c0.3-0.4,0.7-0.9,1.2-1.2c1-0.8,1.4-1.9,1.3-3.2c0-0.6,0-1.1,0.1-1.7c0.2-1.6,1-2.3,2.6-2.4C6.2,3.2,6.6,3.2,6.9,3.2z M7,4.3
		C7,4.3,7,4.2,7,4.3c-0.5,0-1.1,0-1.6,0.1c-0.7,0.1-1,0.4-1.1,1.1C4.3,6.2,4.3,6.9,4.3,7.6c0,1.4-0.4,2.5-1.5,3.4
		c-0.4,0.4-0.9,0.8-1.2,1.3c-0.6,0.8-0.6,1.3,0,2.1C1.8,14.6,2,14.8,2.1,15c0.4,0.4,0.8,0.8,1.1,1.2c0.6,0.6,0.9,1.3,0.9,2.1
		c0,0.8,0,1.7,0.1,2.5c0.1,1.1,0.5,1.5,1.5,1.6c0.6,0.1,1.1,0.1,1.7,0c1.5-0.1,2.7,0.5,3.6,1.6c0.4,0.4,0.8,0.8,1.2,1.2
		c0.7,0.6,1.3,0.6,2,0c0.2-0.2,0.4-0.4,0.6-0.6c0.4-0.4,0.8-0.7,1.1-1.1c0.7-0.7,1.6-1,2.6-1c0.8,0,1.6,0,2.4-0.1
		c0.8-0.1,1.2-0.5,1.3-1.3c0.1-0.6,0.1-1.3,0.1-1.9c-0.1-1.4,0.4-2.5,1.5-3.5c0.4-0.4,0.9-0.8,1.2-1.3c0.6-0.7,0.6-1.3,0-2
		c-0.4-0.5-0.8-0.9-1.2-1.3c-1.1-1-1.6-2.1-1.5-3.5c0-0.6,0-1.3-0.1-1.9c-0.1-0.8-0.4-1.2-1.2-1.3c-0.5-0.1-1-0.1-1.5-0.1
		c-1.8,0.1-3.2-0.4-4.4-1.8C15,2,14.5,1.7,14.1,1.3c-0.4-0.3-0.9-0.3-1.4,0c-0.5,0.4-1,0.8-1.4,1.2c-1.1,1.3-2.5,1.9-4.1,1.7
		C7.1,4.3,7.1,4.3,7,4.3z"></path>
	<path d="M8.1,31.4c1-0.5,1.9-1,2.9-1.5c0.7-0.4,1.5-0.8,2.2-1.2c0.2-0.1,0.4-0.1,0.6,0c1.5,0.8,3.1,1.6,4.6,2.5
		c0.1,0.1,0.3,0.1,0.4,0.2c0-0.2,0-0.3,0-0.5c0-1.6,0-3.1,0-4.7c0-0.1,0-0.2,0-0.3c0-0.4,0.2-0.6,0.6-0.6c0.3,0,0.5,0.2,0.5,0.6
		c0,2,0,4.1,0,6.1c0,0.6-0.6,0.9-1.1,0.6c-1-0.5-2.1-1.1-3.1-1.6c-0.6-0.3-1.3-0.7-1.9-1c-0.3-0.2-0.5-0.2-0.8,0
		c-1.6,0.9-3.2,1.7-4.8,2.6C7.4,33,7,32.7,7,31.7c0-1.9,0-3.7,0-5.6c0-0.1,0-0.2,0-0.2c0-0.4,0.2-0.6,0.6-0.6c0.3,0,0.5,0.2,0.6,0.6
		c0,1.1,0,2.2,0,3.3C8.1,29.9,8.1,30.6,8.1,31.4z"></path>
	<path d="M13.4,19.8c-3.5-0.1-6.2-2.7-6.4-6.1C6.8,10.4,9.4,7.4,12.6,7c0.9-0.1,1.7,0,2.5,0.2c0.4,0.1,0.6,0.4,0.5,0.7
		c-0.1,0.3-0.4,0.5-0.8,0.3c-3.4-0.9-6.5,1.3-6.8,4.8c-0.2,3,2.4,5.6,5.4,5.5c3-0.1,5.3-2.5,5.1-5.6c0-0.6,0.4-0.9,0.8-0.7
		c0.2,0.1,0.3,0.4,0.3,0.6c0.3,3.1-2,6.1-5.1,6.7C14.2,19.7,13.8,19.7,13.4,19.8z"></path>
	<path d="M13.3,14c0.8-0.8,1.6-1.6,2.4-2.4c1.1-1.1,2.3-2.3,3.4-3.4c0.1-0.1,0.1-0.1,0.2-0.2c0.3-0.2,0.5-0.2,0.8,0
		c0.2,0.2,0.2,0.5,0,0.8C20,8.8,19.9,8.9,19.9,9c-2.1,2.1-4.2,4.2-6.3,6.3c-0.1,0.1-0.2,0.2-0.3,0.3c-0.4-0.4-0.8-0.8-1.1-1.2
		c-0.7-0.7-1.4-1.4-2.1-2.1c-0.3-0.3-0.3-0.6-0.1-0.9c0.2-0.2,0.6-0.2,0.9,0.1c0.7,0.7,1.4,1.4,2.2,2.1C13.1,13.8,13.2,13.9,13.3,14
		z"></path>
</g>
</svg>