<?xml version="1.0" encoding="utf-8"?>
<!-- Generator: Adobe Illustrator 26.5.0, SVG Export Plug-In . SVG Version: 6.00 Build 0)  -->
<svg xmlns="http://www.w3.org/2000/svg" xmlns:xlink="http://www.w3.org/1999/xlink" version="1.1" id="_x3C_Layer_x3E_" x="0px" y="0px" viewBox="0 0 370.4 370.4" style="enable-background:new 0 0 370.4 370.4;" xml:space="preserve">
<style type="text/css">

	.st1{fill:#FDFEFD;}
</style>
<g>
	<circle class="st0" cx="185.2" cy="185.2" r="177.9"/>
	<path class="st1" d="M162.2,249.7c-1.4-0.1-2.7-0.8-3.8-1.9c-17.3-17.3-34.5-34.7-51.8-52c-2.8-2.8-2.7-5.4,0-8.2   c6.3-6.4,12.6-12.7,19-19c3-3,5.5-3,8.6,0.1c8.7,8.7,17.4,17.3,26,26.1c1.9,1.9,2.8,1.7,4.5-0.1c23.5-23.6,47.1-47.2,70.6-70.8   c4.1-4.1,6.3-4.1,10.3-0.1c6,6,11.9,11.9,17.9,17.9c3.3,3.3,3.3,5.7,0,9c-32.2,32.2-64.4,64.3-96.6,96.5   C165.6,248.4,164.3,249.6,162.2,249.7z"/>
</g>
</svg>