<?xml version="1.0" encoding="utf-8"?>
<!-- Generator: Adobe Illustrator 27.4.1, SVG Export Plug-In . SVG Version: 6.00 Build 0)  -->
<svg version="1.1" id="Layer_1" xmlns="http://www.w3.org/2000/svg" xmlns:xlink="http://www.w3.org/1999/xlink" x="0px" y="0px"
	 viewBox="0 0 291.4 33.5" style="enable-background:new 0 0 291.4 33.5;" xml:space="preserve">
<style type="text/css">
	.st0{fill:#FAFAFA;}
	.st1{fill:#070707;}
	.st2{fill:#FCAD17;}
	.st3{fill:#FFFFFF;}
	.st4{fill:#FAAD18;}
	.st5{fill:#EAEFF4;}
	.st6{fill:#D9E3EC;}
	.st7{fill:#C6D3E3;}
	.st8{fill:url(#SVGID_1_);}
	.st9{fill:url(#SVGID_00000115486707309132807860000015310483696180314505_);}
	.st10{fill:#FAFBFD;}
	.st11{fill:url(#SVGID_00000013896657848526272710000017590361302960693893_);}
	.st12{fill:url(#SVGID_00000137835879324891462080000013538481288961950134_);}
	.st13{fill:#F4A631;}
	.st14{fill:#FFCF76;}
	.st15{fill:url(#SVGID_00000168795856321530267670000017136693916340414647_);}
	.st16{fill:url(#SVGID_00000138574974695505791340000003436964373652098721_);}
	.st17{fill:url(#SVGID_00000040568448174325638130000006072605754069875858_);}
	.st18{fill-rule:evenodd;clip-rule:evenodd;fill:#F4A631;}
	.st19{fill-rule:evenodd;clip-rule:evenodd;fill:#FFE6B8;}
	.st20{fill:#FFE6B8;}
	.st21{fill-rule:evenodd;clip-rule:evenodd;fill:#FFD792;}
	.st22{fill:#FFD792;}
	.st23{fill:#F4F6F9;}
	.st24{fill:#F7BB44;}
	.st25{fill-rule:evenodd;clip-rule:evenodd;fill:#FAFBFD;}
	.st26{fill-rule:evenodd;clip-rule:evenodd;fill:#D9E3EC;}
	.st27{fill-rule:evenodd;clip-rule:evenodd;fill:#FFCF76;}
	.st28{fill:url(#SVGID_00000116938161116939108110000013838790899366682752_);}
	.st29{fill-rule:evenodd;clip-rule:evenodd;fill:#FFDEA4;}
	.st30{fill:#FCBA39;}
	.st31{fill:url(#SVGID_00000062897140528342744020000012320575848785872831_);}
	.st32{fill:url(#SVGID_00000037653226292804229880000011303324897904789380_);}
	.st33{fill:url(#SVGID_00000056395433297873916230000009086698312157475224_);}
	.st34{fill:url(#SVGID_00000122699199826872479900000010600642907599570362_);}
	.st35{fill:url(#SVGID_00000108990138661674742040000001485341975572491140_);}
	.st36{fill:url(#SVGID_00000182495574883044407050000004386976021658295996_);}
	.st37{fill:url(#SVGID_00000143598860132343849860000014215048232967728258_);}
	.st38{fill:url(#SVGID_00000174575255884329857000000010679769985218088124_);}
	.st39{fill:url(#SVGID_00000134226515727652669330000011339513388912431036_);}
	.st40{fill:url(#SVGID_00000049204331234103351300000001330632247623255717_);}
	.st41{fill:#F5F7FB;}
	.st42{fill:url(#SVGID_00000152266127617153445050000003779802881344547767_);}
	.st43{fill-rule:evenodd;clip-rule:evenodd;fill:url(#SVGID_00000132085192643938397460000006187712765218890406_);}
	.st44{fill-rule:evenodd;clip-rule:evenodd;fill:#EE5635;}
	.st45{fill:#EE5635;}
	.st46{fill:#F4745B;}
	.st47{fill:#FFDEA4;}
	.st48{fill:url(#SVGID_00000165222287807425780150000006325077908000344251_);}
	.st49{fill:url(#SVGID_00000052804533851062090110000005252192971161745029_);}
	.st50{fill-rule:evenodd;clip-rule:evenodd;fill:#F7BB44;}
	.st51{fill:url(#SVGID_00000141434475661969324020000002014603848179550130_);}
	.st52{fill:url(#SVGID_00000139983487899069684670000012067419662728048552_);}
	.st53{fill-rule:evenodd;clip-rule:evenodd;fill:url(#SVGID_00000143599207365224803840000000167007729226932102_);}
	.st54{fill-rule:evenodd;clip-rule:evenodd;fill:#4A8DE6;}
	.st55{fill:url(#SVGID_00000109714064066918941250000014871057685168965554_);}
	.st56{fill-rule:evenodd;clip-rule:evenodd;fill:url(#SVGID_00000136380423222004296000000005864928835485321134_);}
	.st57{fill:url(#SVGID_00000111185495029759296850000017635666676728177823_);}
	.st58{fill-rule:evenodd;clip-rule:evenodd;fill:#5D9EF2;}
	.st59{fill:url(#SVGID_00000060000679000132080930000007125153474746422438_);}
	.st60{fill:url(#SVGID_00000083794366744991082170000007971651722449509761_);}
	.st61{fill:url(#SVGID_00000039836888509026738280000016688962850421266105_);}
	.st62{fill-rule:evenodd;clip-rule:evenodd;fill:#F2F4F9;}
	.st63{fill:url(#SVGID_00000050640361249791037060000000612107314637695152_);}
	.st64{fill:url(#SVGID_00000076576043377179712370000008255298776863813308_);}
	.st65{fill:url(#SVGID_00000109716472236949519210000005854213296698484401_);}
	.st66{fill:url(#SVGID_00000032624151872638959620000018411194013851741107_);}
	.st67{fill-rule:evenodd;clip-rule:evenodd;fill:#4CE400;}
	.st68{fill:#488A2E;}
	.st69{fill:url(#SVGID_00000065773471370309181360000013354573163759023236_);}
	.st70{fill:url(#SVGID_00000033327882656059005980000007042444547498745992_);}
	.st71{fill:url(#SVGID_00000157267938739048658470000012857023363743818427_);}
	.st72{fill:url(#SVGID_00000047744583750730381490000006735894009377684914_);}
	.st73{fill:url(#SVGID_00000139292238993083824250000013308821853402711979_);}
	.st74{fill:url(#SVGID_00000132807079571031629380000016960010667743112370_);}
	.st75{fill:url(#SVGID_00000000914722514420551020000014059575411127820954_);}
	.st76{fill:url(#SVGID_00000107585086286166465210000008300550326594753686_);}
	.st77{fill:#E7EDF3;}
	.st78{fill:url(#SVGID_00000178194470563493787820000002875863159343346094_);}
	.st79{fill:url(#SVGID_00000163756303364477606700000002255086901203790764_);}
	.st80{fill:url(#SVGID_00000124133383846618886750000012890094326231501466_);}
	.st81{fill:url(#SVGID_00000166648238514824890660000006244697241836703918_);}
	.st82{fill:url(#SVGID_00000096038615518518300150000007616466839812529064_);}
	.st83{fill:url(#SVGID_00000173877529473381898370000011787635975058761638_);}
	.st84{fill:url(#SVGID_00000086670597197436965770000005631902470855361201_);}
	.st85{fill:#F6F8FB;}
	.st86{fill:url(#SVGID_00000028315605578180260630000000256815935027588015_);}
	.st87{fill:url(#SVGID_00000054260697728873737110000003806940177316589217_);}
	.st88{fill:url(#SVGID_00000146499241725447978730000003231924656923681717_);}
	.st89{fill:url(#SVGID_00000172413558333752015270000006638551329633704851_);}
</style>
<g>
	<path class="st5" d="M90.9,10.6L54,31.7l3,1.7l36.9-21.1L90.9,10.6z"/>
	<path class="st5" d="M40.9,13.5L15.2,28.3l3,1.7l25.7-14.8L40.9,13.5z"/>
	<path class="st5" d="M72.5,5.8L53.7,16.6l9.9,5.7l18.8-10.8L72.5,5.8z"/>
	<path class="st6" d="M73.5,6.4L55.7,16.6l8.9,5.1l17.8-10.3L73.5,6.4z"/>
	<path class="st6" d="M82.4,9.2l-2-1.1v2.3l2,1.1V9.2z"/>
	<path class="st7" d="M64.6,19.5l-8.9-5.1v2.3l8.9,5.1V19.5z"/>
	<path class="st6" d="M64.6,21.2l-8.9-5.1v0.6l8.9,5.1V21.2z"/>
	
		<linearGradient id="SVGID_1_" gradientUnits="userSpaceOnUse" x1="67.9275" y1="806.2919" x2="70.5231" y2="799.9478" gradientTransform="matrix(1 0 0 -1 0 815.4345)">
		<stop  offset="0" style="stop-color:#EDF0F7"/>
		<stop  offset="1" style="stop-color:#FAFBFD"/>
	</linearGradient>
	<path class="st8" d="M73.5,4.1L55.7,14.4l8.9,5.1L82.4,9.2L73.5,4.1z"/>
	<path class="st7" d="M66.5,18.9L66,19.2v0.6l0.5-0.3V18.9z"/>
	<path class="st7" d="M65.5,19.5l-0.5,0.3v0.6l0.5-0.3V19.5z"/>
	<path class="st7" d="M62.6,21.2l-0.5,0.3v0.6l0.5-0.3V21.2z"/>
	<path class="st7" d="M70.5,16.6L70,16.9v0.6l0.5-0.3V16.6z"/>
	<path class="st7" d="M69.5,17.2L69,17.5v0.6l0.5-0.3V17.2z"/>
	<path class="st7" d="M74.4,14.4l-0.5,0.3v0.6l0.5-0.3V14.4z"/>
	<path class="st7" d="M78.4,12.1l-0.5,0.3v0.6l0.5-0.3V12.1z"/>
	<path class="st7" d="M81.4,10.4l-0.5,0.3v0.6l0.5-0.3V10.4z"/>
	<path class="st7" d="M77.4,12.6l-0.5,0.3v0.6l0.5-0.3V12.6z"/>
	<path class="st7" d="M73.5,14.9L73,15.2v0.6l0.5-0.3V14.9z"/>
	<path class="st6" d="M60.6,20.9l-4.4,2.6l4.9,2.9l4.4-2.6L60.6,20.9z"/>
	<path class="st6" d="M65.6,21.5l-2-1.1v2.3l2,1.1V21.5z"/>
	<path class="st7" d="M61.1,24.1l-4.9-2.9v2.3l4.9,2.9V24.1z"/>
	
		<linearGradient id="SVGID_00000119811042381769646650000004548868690057388183_" gradientUnits="userSpaceOnUse" x1="60.8872" y1="794.7191" x2="60.7489" y2="791.5872" gradientTransform="matrix(1 0 0 -1 0 815.4345)">
		<stop  offset="0" style="stop-color:#EDF0F7"/>
		<stop  offset="1" style="stop-color:#FAFBFD"/>
	</linearGradient>
	<path style="fill:url(#SVGID_00000119811042381769646650000004548868690057388183_);" d="M60.6,18.6l-4.4,2.6l4.9,2.9l4.4-2.6
		L60.6,18.6z"/>
	<path class="st6" d="M55.2,24.1l-2.7,1.6l4.9,2.9l2.7-1.6L55.2,24.1z"/>
	<path class="st6" d="M60.1,24.6l-2-1.1v2.3l2,1.1V24.6z"/>
	<path class="st7" d="M57.4,26.2l-4.9-2.9v2.3l4.9,2.9V26.2z"/>
	
		<linearGradient id="SVGID_00000094598434356285438740000009406940776186410893_" gradientUnits="userSpaceOnUse" x1="56.402" y1="792.1521" x2="55.8799" y2="788.941" gradientTransform="matrix(1 0 0 -1 0 815.4345)">
		<stop  offset="0" style="stop-color:#EDF0F7"/>
		<stop  offset="1" style="stop-color:#FAFBFD"/>
	</linearGradient>
	<path style="fill:url(#SVGID_00000094598434356285438740000009406940776186410893_);" d="M55.2,21.8l-2.7,1.6l4.9,2.9l2.7-1.6
		L55.2,21.8z"/>
	<path class="st5" d="M78.4,22.3L70,27.2l3.5,2l8.4-4.8L78.4,22.3z"/>
	<path class="st13" d="M78.4,25.8l-4-2.3v1.7l4,2.3V25.8z"/>
	<path class="st14" d="M83.8,22.1l-5.4,3.1v2.3l5.4-3.1V22.1z"/>
	
		<linearGradient id="SVGID_00000165955452951668326790000005409413987337675951_" gradientUnits="userSpaceOnUse" x1="77.223" y1="791.0865" x2="76.5508" y2="789.468" gradientTransform="matrix(1 0 0 -1 0 815.4345)">
		<stop  offset="0" style="stop-color:#FFD690"/>
		<stop  offset="1" style="stop-color:#FFE6B8"/>
	</linearGradient>
	<path style="fill:url(#SVGID_00000165955452951668326790000005409413987337675951_);" d="M75.9,23.2l-1,0.6l3.5,2l1-0.6L75.9,23.2z
		"/>
	
		<linearGradient id="SVGID_00000165915245346315934200000002526091511381019068_" gradientUnits="userSpaceOnUse" x1="80.0692" y1="794.0481" x2="80.8137" y2="791.7495" gradientTransform="matrix(1 0 0 -1 0 815.4345)">
		<stop  offset="0" style="stop-color:#FFD690"/>
		<stop  offset="1" style="stop-color:#FFE6B8"/>
	</linearGradient>
	<path style="fill:url(#SVGID_00000165915245346315934200000002526091511381019068_);" d="M80.9,20.3l-4,2.3l3,1.7l4-2.3L80.9,20.3z
		"/>
	<path class="st14" d="M82.8,19.2l-3.5,2v3.4l3.5-2V19.2z"/>
	
		<linearGradient id="SVGID_00000008133484104280247480000015094355758712850050_" gradientUnits="userSpaceOnUse" x1="79.9215" y1="797.2637" x2="79.8102" y2="794.9881" gradientTransform="matrix(1 0 0 -1 0 815.4345)">
		<stop  offset="0" style="stop-color:#FFD690"/>
		<stop  offset="1" style="stop-color:#FFE6B8"/>
	</linearGradient>
	<path style="fill:url(#SVGID_00000008133484104280247480000015094355758712850050_);" d="M79.4,17.2l-2.5,1.4l3.5,2l2.5-1.4
		L79.4,17.2z"/>
	<path class="st18" d="M80.4,20.6l-3.5-2l-1,4.6l3.4,2L80.4,20.6z"/>
	<path class="st19" d="M82.4,20.1l-1.5,0.9L80.7,25l1.6-1V20.1z"/>
	<path class="st13" d="M79.9,27.2c0.3-0.2,0.5-0.5,0.5-0.9s-0.2-0.4-0.5-0.3c-0.3,0.2-0.5,0.5-0.5,0.9
		C79.4,27.2,79.6,27.3,79.9,27.2z"/>
	<path class="st18" d="M80.2,26l0.6,0.3l-0.3,0.1l-0.4-0.3L80.2,26z"/>
	<path class="st18" d="M80,27.5l-0.5-0.3l0.3-0.2l0.3,0.3L80,27.5z"/>
	<path class="st20" d="M80.4,27.5c0.3-0.2,0.5-0.5,0.5-0.9c0-0.3-0.2-0.4-0.5-0.3c-0.3,0.2-0.5,0.5-0.5,0.9S80.1,27.6,80.4,27.5z"/>
	<path class="st13" d="M82.6,25.6c0.3-0.2,0.5-0.5,0.5-0.9s-0.2-0.4-0.5-0.3c-0.3,0.2-0.5,0.5-0.5,0.9S82.3,25.8,82.6,25.6z"/>
	<path class="st18" d="M82.9,24.5l0.6,0.3l-0.3,0.1l-0.4-0.3L82.9,24.5z"/>
	<path class="st18" d="M82.7,26l-0.5-0.3l0.3-0.2l0.3,0.3L82.7,26z"/>
	<path class="st20" d="M83,25.9c0.3-0.2,0.5-0.5,0.5-0.9s-0.2-0.4-0.5-0.3c-0.3,0.2-0.5,0.5-0.5,0.9C82.6,26,82.8,26.1,83,25.9z"/>
	<path class="st20" d="M77.9,17.5l-1,0.6v9.7l1-0.6V17.5z"/>
	<path class="st19" d="M76.9,27.2l-3,2.3l3-1.7V27.2z"/>
	<path class="st21" d="M76.4,26.9l-3,2.3l0.5,0.3l3-2.3L76.4,26.9z"/>
	<path class="st13" d="M76.9,18.1l-0.5-0.3v9.1l0.5,0.3V18.1z"/>
	<path class="st22" d="M77.4,17.2l-1,0.6l0.5,0.3l1-0.6L77.4,17.2z"/>
	<path class="st20" d="M75.9,16.3l-1,0.6v9.7l1-0.6V16.3z"/>
	<path class="st13" d="M74.9,16.9l-0.5-0.3v9.1l0.5,0.3V16.9z"/>
	<path class="st19" d="M74.9,26l-3,2.3l3-1.7V26z"/>
	<path class="st21" d="M74.5,25.8l-3,2.3l0.5,0.3l3-2.3L74.5,25.8z"/>
	<path class="st22" d="M75.4,16.1l-1,0.6l0.5,0.3l1-0.6L75.4,16.1z"/>
	<path class="st5" d="M118.8,4.9L97,17.5l9.9,5.7l21.7-12.6L118.8,4.9z"/>
	<path class="st6" d="M119.8,5.5L99,17.5l8.9,5.1l20.8-12L119.8,5.5z"/>
	<path class="st7" d="M128.6,10.1l-20.8,12v0.6l20.8-12V10.1z"/>
	<path class="st6" d="M128.7,8.4l-2-1.1v2.3l2,1.1V8.4z"/>
	<path class="st7" d="M107.9,20.3L99,15.2v2.3l8.9,5.1V20.3z"/>
	<path class="st6" d="M107.9,22.1L99,16.9v0.6l8.9,5.1V22.1z"/>
	
		<linearGradient id="SVGID_00000068637238099465300310000007910715728332552597_" gradientUnits="userSpaceOnUse" x1="112.4464" y1="806.7498" x2="115.8768" y2="799.045" gradientTransform="matrix(1 0 0 -1 0 815.4345)">
		<stop  offset="0" style="stop-color:#ECEFF6"/>
		<stop  offset="0.56" style="stop-color:#F6F7FB"/>
		<stop  offset="1" style="stop-color:#FAFBFD"/>
	</linearGradient>
	<path style="fill:url(#SVGID_00000068637238099465300310000007910715728332552597_);" d="M119.8,3.2L99,15.2l8.9,5.1l20.8-12
		L119.8,3.2z"/>
	<path class="st6" d="M119.3,5.2l-16.8,9.7l4.9,2.9l16.8-9.7L119.3,5.2z"/>
	<path class="st6" d="M124.2,6.9l-2-1.1v1.1l2,1.1V6.9z"/>
	<path class="st7" d="M107.4,16.6l-4.9-2.9v1.1l4.9,2.9V16.6z"/>
	
		<linearGradient id="SVGID_00000170241646037275397430000011572531674395543690_" gradientUnits="userSpaceOnUse" x1="113.1131" y1="805.9401" x2="113.9446" y2="802.7132" gradientTransform="matrix(1 0 0 -1 0 815.4345)">
		<stop  offset="0" style="stop-color:#ECEFF6"/>
		<stop  offset="1" style="stop-color:#FAFBFD"/>
	</linearGradient>
	<path style="fill:url(#SVGID_00000170241646037275397430000011572531674395543690_);" d="M119.3,4.1l-16.8,9.7l4.9,2.9l16.8-9.7
		L119.3,4.1z"/>
	<path class="st10" d="M126.2,9.8l-1,0.6l1,0.6l1-0.6L126.2,9.8z"/>
	<path class="st6" d="M127.2,10.4l-1,0.6v2.3l1-0.6V10.4z"/>
	<path class="st7" d="M126.2,10.9l-1-0.6v2.3l1,0.6V10.9z"/>
	<path class="st10" d="M122.2,12.1l-1,0.6l1,0.6l1-0.6L122.2,12.1z"/>
	<path class="st6" d="M123.2,12.6l-1,0.6v2.3l1-0.6V12.6z"/>
	<path class="st7" d="M122.2,13.2l-1-0.6v2.3l1,0.6V13.2z"/>
	<path class="st10" d="M118.3,14.4l-1,0.6l1,0.6l1-0.6L118.3,14.4z"/>
	<path class="st6" d="M119.3,14.9l-1,0.6v2.3l1-0.6V14.9z"/>
	<path class="st7" d="M118.3,15.5l-1-0.6v2.3l1,0.6V15.5z"/>
	<path class="st10" d="M114.3,16.6l-1,0.6l1,0.6l1-0.6L114.3,16.6z"/>
	<path class="st6" d="M115.3,17.2l-1,0.6v2.3l1-0.6V17.2z"/>
	<path class="st7" d="M114.3,17.8l-1-0.6v2.3l1,0.6V17.8z"/>
	<path class="st10" d="M110.4,18.9l-1,0.6l1,0.6l1-0.6L110.4,18.9z"/>
	<path class="st6" d="M111.4,19.5l-1,0.6v2.3l1-0.6V19.5z"/>
	<path class="st7" d="M110.4,20.1l-1-0.6v2.3l1,0.6V20.1z"/>
	<path class="st5" d="M130.7,11.8l-6.5,3.7l3,1.7l6.5-3.7L130.7,11.8z"/>
	<path class="st5" d="M124.5,15.3l-20,11.6l3,1.7l20-11.6L124.5,15.3z"/>
	<path class="st5" d="M87,14.2l-3,1.7l23.4,12.7l3-1.7L87,14.2z"/>
	<path class="st5" d="M131.1,12l-3,1.7L157.7,30l3-1.7L131.1,12z"/>
	<path class="st5" d="M35.6,17.8l-3,1.7L57,33.5l3-1.7L35.6,17.8z"/>
	<path class="st23" d="M120.7,22.1l-2.5,1.4l6.4,3.7l2.5-1.4L120.7,22.1z"/>
	<path class="st14" d="M131.6,20.9l-5.9,3.4v2.3l5.9-3.4V20.9z"/>
	<path class="st24" d="M125.7,24.3l-5.4-3.1v2.3l5.4,3.1V24.3z"/>
	<path class="st24" d="M128.7,19.2l-5.9,3.4l3,1.7l5.9-3.4L128.7,19.2z"/>
	<path class="st25" d="M131.6,20.9l-5.4-3.1l-2.5-0.3l5.4,3.1L131.6,20.9z"/>
	<path class="st26" d="M123.7,17.5l-3.5,3.7l5.4,3.1l3.5-3.7L123.7,17.5z"/>
	<path class="st23" d="M115.2,24.1l-2.7,1.6l7.4,4.3l2.7-1.6L115.2,24.1z"/>
	<path class="st14" d="M120.3,29c0.3,0.1,0.5,0,0.5-0.3c0-0.3-0.2-0.6-0.5-0.8c-0.3-0.1-0.5,0-0.5,0.3C119.8,28.5,120,28.8,120.3,29
		z"/>
	<path class="st27" d="M120.6,29l-0.3,0.1l0-0.1L120.6,29L120.6,29z"/>
	<path class="st27" d="M119.7,28l0.2-0.1l0.1,0.1l-0.3,0.1L119.7,28z"/>
	<path class="st24" d="M120,29.1c0.3,0.1,0.5,0,0.5-0.3c0-0.3-0.2-0.6-0.5-0.8c-0.3-0.1-0.5,0-0.5,0.3C119.6,28.6,119.8,29,120,29.1
		z"/>
	<path class="st14" d="M114.4,25.5c0.3,0.1,0.5,0,0.5-0.3c0-0.3-0.2-0.6-0.5-0.8c-0.3-0.1-0.5,0-0.5,0.3
		C113.9,25,114.2,25.4,114.4,25.5z"/>
	<path class="st27" d="M114.7,25.6l-0.3,0.1l0-0.1L114.7,25.6L114.7,25.6z"/>
	<path class="st27" d="M113.8,24.6l0.2-0.1l0.1,0.1l-0.3,0.1L113.8,24.6z"/>
	<path class="st24" d="M114.1,25.7c0.3,0.1,0.5,0,0.5-0.3c0-0.3-0.2-0.6-0.5-0.8c-0.3-0.1-0.5,0-0.5,0.3
		C113.7,25.2,113.9,25.5,114.1,25.7z"/>
	<path class="st24" d="M119.3,25.8l-5.9-3.4v2.3l5.9,3.4V25.8z"/>
	
		<linearGradient id="SVGID_00000147930605256331420770000003111810687858956983_" gradientUnits="userSpaceOnUse" x1="118.1158" y1="792.9086" x2="117.8159" y2="787.7567" gradientTransform="matrix(1 0 0 -1 0 815.4345)">
		<stop  offset="0" style="stop-color:#FFCF76"/>
		<stop  offset="1" style="stop-color:#FFD489"/>
	</linearGradient>
	<path style="fill:url(#SVGID_00000147930605256331420770000003111810687858956983_);" d="M115.3,21.2l-2,1.1l7.4,4.3l2-1.1
		L115.3,21.2z"/>
	<path class="st24" d="M121.2,26.9l-2-1.1V28l2,1.1V26.9z"/>
	<path class="st14" d="M119.8,26.6l-3-1.7v0.6l3,1.7V26.6z"/>
	<path class="st14" d="M113.3,22.9l2.8,1.6v0.6l-2.8-1.6V22.9z"/>
	<path class="st29" d="M122.7,25.5l-2,1.1l0.5,2v0.6l2-1.1v-0.6L122.7,25.5z"/>
	<path class="st14" d="M123.2,27.5l-2,1.1v0.6l2-1.1V27.5z"/>
	<path class="st5" d="M181.2,8.9l-29.9,17.3l3,1.7l29.9-17.3L181.2,8.9z"/>
	<path class="st5" d="M167.6,5.1l-18.8,10.8l9.4,5.4L177,10.5L167.6,5.1z"/>
	<path class="st6" d="M173,8.2l-17.8,10.3l4,2.3L177,10.5L173,8.2z"/>
	<path class="st6" d="M177,8.2l-2-1.1v2.3l2,1.1V8.2z"/>
	<path class="st7" d="M159.2,18.5l-4-2.3v2.3l4,2.3V18.5z"/>
	<path class="st7" d="M151.8,14.2l-0.5-0.3v2.3l0.5,0.3V14.2z"/>
	<path class="st6" d="M152.3,13.9l-0.5,0.3v2.3l0.5-0.3V13.9z"/>
	<path class="st6" d="M159.2,20.2l-4-2.3v0.6l4,2.3V20.2z"/>
	
		<linearGradient id="SVGID_00000008139273259227552930000005164036452605025199_" gradientUnits="userSpaceOnUse" x1="162.4708" y1="807.3515" x2="165.1953" y2="801.0433" gradientTransform="matrix(1 0 0 -1 0 815.4345)">
		<stop  offset="0" style="stop-color:#EDF0F7"/>
		<stop  offset="1" style="stop-color:#FAFBFD"/>
	</linearGradient>
	<path style="fill:url(#SVGID_00000008139273259227552930000005164036452605025199_);" d="M168.1,3.1l-17.8,10.3l8.9,5.1L177,8.2
		L168.1,3.1z"/>
	<path class="st7" d="M161.2,17.9l-0.5,0.3v0.6l0.5-0.3V17.9z"/>
	<path class="st7" d="M160.2,18.5l-0.5,0.3v0.6l0.5-0.3V18.5z"/>
	<path class="st7" d="M165.1,15.6l-0.5,0.3v0.6l0.5-0.3V15.6z"/>
	<path class="st7" d="M164.1,16.2l-0.5,0.3v0.6l0.5-0.3V16.2z"/>
	<path class="st7" d="M169.1,13.4l-0.5,0.3v0.6l0.5-0.3V13.4z"/>
	<path class="st7" d="M173,11.1l-0.5,0.3v0.6l0.5-0.3V11.1z"/>
	<path class="st7" d="M176,9.4l-0.5,0.3v0.6l0.5-0.3V9.4z"/>
	<path class="st7" d="M172,11.6l-0.5,0.3v0.6l0.5-0.3V11.6z"/>
	<path class="st7" d="M168.1,13.9l-0.5,0.3v0.6l0.5-0.3V13.9z"/>
	<path class="st41" d="M174.2,21.2l-2.7,1.6l2,1.2l2.7-1.6L174.2,21.2z"/>
	<path class="st41" d="M168,16.8l-4.1,2.4l6.9,4l4.1-2.4L168,16.8z"/>
	
		<linearGradient id="SVGID_00000139287511813293318440000003459557057020391845_" gradientUnits="userSpaceOnUse" x1="173.5948" y1="22.7906" x2="174.7986" y2="22.7906">
		<stop  offset="0" style="stop-color:#FFCF76"/>
		<stop  offset="1" style="stop-color:#FFD489"/>
	</linearGradient>
	<path style="fill:url(#SVGID_00000139287511813293318440000003459557057020391845_);" d="M174.2,23.5c0.3,0.2,0.6,0,0.6-0.3
		s-0.3-0.9-0.6-1c-0.3-0.2-0.6,0-0.6,0.3S173.9,23.3,174.2,23.5z"/>
	
		<linearGradient id="SVGID_00000163768565912918182850000005999308834755955334_" gradientUnits="userSpaceOnUse" x1="174.2618" y1="23.593" x2="174.6188" y2="23.593">
		<stop  offset="0" style="stop-color:#FFCF76"/>
		<stop  offset="1" style="stop-color:#FFD489"/>
	</linearGradient>
	<path style="fill-rule:evenodd;clip-rule:evenodd;fill:url(#SVGID_00000163768565912918182850000005999308834755955334_);" d="
		M174.6,23.5l-0.3,0.2l0-0.1L174.6,23.5L174.6,23.5z"/>
	<path class="st44" d="M173.4,22.2l0.3-0.2l0.1,0.2l-0.4,0.2L173.4,22.2z"/>
	<path class="st24" d="M173.9,23.7c0.3,0.2,0.6,0,0.6-0.3c0-0.4-0.3-0.9-0.6-1c-0.3-0.2-0.6,0-0.6,0.3
		C173.3,23,173.5,23.5,173.9,23.7z"/>
	<path class="st45" d="M171.1,22.1c0.3,0.2,0.6,0,0.6-0.3c0-0.4-0.3-0.9-0.6-1c-0.3-0.2-0.6,0-0.6,0.3
		C170.5,21.5,170.7,22,171.1,22.1z"/>
	<path class="st44" d="M171.5,22.2l-0.3,0.2l0-0.1L171.5,22.2L171.5,22.2z"/>
	<path class="st44" d="M170.3,20.9l0.3-0.2l0.1,0.2l-0.4,0.2L170.3,20.9z"/>
	<path class="st46" d="M170.7,22.3c0.3,0.2,0.6,0,0.6-0.3s-0.3-0.9-0.6-1c-0.3-0.2-0.6,0-0.6,0.3S170.4,22.1,170.7,22.3z"/>
	<path class="st45" d="M167.9,20.3c0.3,0.2,0.6,0,0.6-0.3s-0.3-0.9-0.6-1c-0.3-0.2-0.6,0-0.6,0.3C167.3,19.7,167.6,20.1,167.9,20.3z
		"/>
	<path class="st44" d="M168.3,20.4l-0.3,0.2l0-0.1L168.3,20.4L168.3,20.4z"/>
	<path class="st44" d="M167.1,19.1l0.3-0.2l0.1,0.2l-0.4,0.2L167.1,19.1z"/>
	<path class="st46" d="M167.6,20.5c0.3,0.2,0.6,0,0.6-0.3c0-0.4-0.3-0.9-0.6-1c-0.3-0.2-0.6,0-0.6,0.3S167.2,20.3,167.6,20.5z"/>
	<path class="st24" d="M169.6,17.1l-3,1.7l5.9,3.4l3-1.7L169.6,17.1z"/>
	<path class="st24" d="M169.6,17.1l-3-1.7v3.4l3,1.7V17.1z"/>
	<path class="st47" d="M175.5,17l-3,1.7v3.4l3-1.7V17z"/>
	
		<linearGradient id="SVGID_00000030481300211757146870000014663765375986550207_" gradientUnits="userSpaceOnUse" x1="170.5377" y1="800.765" x2="171.8512" y2="796.9514" gradientTransform="matrix(1 0 0 -1 0 815.4345)">
		<stop  offset="0" style="stop-color:#FFCF76"/>
		<stop  offset="1" style="stop-color:#FFD489"/>
	</linearGradient>
	<path style="fill:url(#SVGID_00000030481300211757146870000014663765375986550207_);" d="M169.6,13.6l-3,1.7l5.9,3.4l3-1.7
		L169.6,13.6z"/>
	<path class="st24" d="M175,20.8l-2-1.1v2.3l2,1.1V20.8z"/>
	
		<linearGradient id="SVGID_00000036944026161520520450000015277995214709599922_" gradientUnits="userSpaceOnUse" x1="174.169" y1="21.1235" x2="174.6412" y2="21.1235">
		<stop  offset="0" style="stop-color:#FFCF76"/>
		<stop  offset="1" style="stop-color:#FFD489"/>
	</linearGradient>
	<path style="fill:url(#SVGID_00000036944026161520520450000015277995214709599922_);" d="M174.6,20.7l-0.5-0.3v1.1l0.5,0.3V20.7z"
		/>
	<path class="st24" d="M175,22.5l-2-1.1v0.6l2,1.1V22.5z"/>
	<path class="st50" d="M176.7,19.5l-2,1.1l0.2,2.4l2-1.1L176.7,19.5z"/>
	<path class="st29" d="M176.7,19.7l-1.8,1l0.1,1.2l1.8-1L176.7,19.7z"/>
	<path class="st29" d="M176.9,21.3l-2,1.1l0.1,0.6l2-1.1L176.9,21.3z"/>
	
		<linearGradient id="SVGID_00000021121242075678740830000003575299792120776588_" gradientUnits="userSpaceOnUse" x1="173.0391" y1="19.5543" x2="176.7442" y2="19.5543">
		<stop  offset="0" style="stop-color:#FFCF76"/>
		<stop  offset="1" style="stop-color:#FFD489"/>
	</linearGradient>
	<path style="fill:url(#SVGID_00000021121242075678740830000003575299792120776588_);" d="M175,18.5l-2,1.1l1.7,1l2-1.1L175,18.5z"
		/>
	<path class="st5" d="M171.5,25.1l-2.7,1.6l2,1.2l2.7-1.6L171.5,25.1z"/>
	<path class="st5" d="M165.3,20.7l-4.1,2.4l6.9,4l4.1-2.4L165.3,20.7z"/>
	
		<linearGradient id="SVGID_00000127033303316179728900000002310296265108714681_" gradientUnits="userSpaceOnUse" x1="170.6302" y1="26.7847" x2="171.8341" y2="26.7847">
		<stop  offset="0" style="stop-color:#FFCF76"/>
		<stop  offset="1" style="stop-color:#FFD489"/>
	</linearGradient>
	<path style="fill:url(#SVGID_00000127033303316179728900000002310296265108714681_);" d="M171.2,27.5c0.3,0.2,0.6,0,0.6-0.3
		c0-0.4-0.3-0.9-0.6-1s-0.6,0-0.6,0.3C170.6,26.8,170.9,27.3,171.2,27.5z"/>
	
		<linearGradient id="SVGID_00000175287206617224032770000015450797395814039994_" gradientUnits="userSpaceOnUse" x1="171.2973" y1="27.5869" x2="171.6542" y2="27.5869">
		<stop  offset="0" style="stop-color:#FFCF76"/>
		<stop  offset="1" style="stop-color:#FFD489"/>
	</linearGradient>
	<path style="fill-rule:evenodd;clip-rule:evenodd;fill:url(#SVGID_00000175287206617224032770000015450797395814039994_);" d="
		M171.7,27.5l-0.3,0.2l0-0.1L171.7,27.5L171.7,27.5z"/>
	<path class="st54" d="M170.5,26.2l0.3-0.2l0.1,0.2l-0.4,0.2L170.5,26.2z"/>
	<path class="st24" d="M170.9,27.7c0.3,0.2,0.6,0,0.6-0.3s-0.3-0.9-0.6-1c-0.3-0.2-0.6,0-0.6,0.3S170.6,27.5,170.9,27.7z"/>
	
		<linearGradient id="SVGID_00000158750954356142853760000010720268408390249858_" gradientUnits="userSpaceOnUse" x1="167.4865" y1="25.4439" x2="168.6903" y2="25.4439">
		<stop  offset="0" style="stop-color:#FFCF76"/>
		<stop  offset="1" style="stop-color:#FFD489"/>
	</linearGradient>
	<path style="fill:url(#SVGID_00000158750954356142853760000010720268408390249858_);" d="M168.1,26.1c0.3,0.2,0.6,0,0.6-0.3
		c0-0.4-0.3-0.9-0.6-1c-0.3-0.2-0.6,0-0.6,0.3C167.5,25.5,167.8,25.9,168.1,26.1z"/>
	
		<linearGradient id="SVGID_00000044142180189146314400000016547911147782779027_" gradientUnits="userSpaceOnUse" x1="168.1539" y1="26.2462" x2="168.5108" y2="26.2462">
		<stop  offset="0" style="stop-color:#FFCF76"/>
		<stop  offset="1" style="stop-color:#FFD489"/>
	</linearGradient>
	<path style="fill-rule:evenodd;clip-rule:evenodd;fill:url(#SVGID_00000044142180189146314400000016547911147782779027_);" d="
		M168.5,26.2l-0.3,0.2l0-0.1L168.5,26.2L168.5,26.2z"/>
	<path class="st54" d="M167.3,24.9l0.3-0.2l0.1,0.2l-0.4,0.2L167.3,24.9z"/>
	<path class="st24" d="M167.8,26.3c0.3,0.2,0.6,0,0.6-0.3c0-0.4-0.3-0.9-0.6-1c-0.3-0.2-0.6,0-0.6,0.3
		C167.1,25.7,167.4,26.1,167.8,26.3z"/>
	
		<linearGradient id="SVGID_00000067229975193773397750000014264838078140406675_" gradientUnits="userSpaceOnUse" x1="164.3327" y1="23.6225" x2="165.5365" y2="23.6225">
		<stop  offset="0" style="stop-color:#FFCF76"/>
		<stop  offset="1" style="stop-color:#FFD489"/>
	</linearGradient>
	<path style="fill:url(#SVGID_00000067229975193773397750000014264838078140406675_);" d="M164.9,24.3c0.3,0.2,0.6,0,0.6-0.3
		s-0.3-0.9-0.6-1c-0.3-0.2-0.6,0-0.6,0.3S164.6,24.1,164.9,24.3z"/>
	<path class="st58" d="M165.4,24.4l-0.3,0.2l0-0.1L165.4,24.4L165.4,24.4z"/>
	<path class="st54" d="M164.2,23.1l0.3-0.2l0.1,0.2l-0.4,0.2L164.2,23.1z"/>
	<path class="st24" d="M164.6,24.5c0.3,0.2,0.6,0,0.6-0.3c0-0.4-0.3-0.9-0.6-1c-0.3-0.2-0.6,0-0.6,0.3
		C164,23.8,164.3,24.3,164.6,24.5z"/>
	<path class="st24" d="M166.6,21.1l-3,1.7l5.9,3.4l3-1.7L166.6,21.1z"/>
	<path class="st24" d="M166.6,21l-3-1.7v3.4l3,1.7V21z"/>
	<path class="st47" d="M172.6,21l-3,1.7v3.4l3-1.7V21z"/>
	
		<linearGradient id="SVGID_00000083067517018302405380000004699292763027966855_" gradientUnits="userSpaceOnUse" x1="167.5864" y1="797.0765" x2="168.8759" y2="792.4668" gradientTransform="matrix(1 0 0 -1 0 815.4345)">
		<stop  offset="0" style="stop-color:#FFCF76"/>
		<stop  offset="1" style="stop-color:#FFD489"/>
	</linearGradient>
	<path style="fill:url(#SVGID_00000083067517018302405380000004699292763027966855_);" d="M166.6,17.6l-3,1.7l5.9,3.4l3-1.7
		L166.6,17.6z"/>
	<path class="st24" d="M172.1,24.8l-2-1.1v2.3l2,1.1V24.8z"/>
	
		<linearGradient id="SVGID_00000040557611847683994370000003413849503624261818_" gradientUnits="userSpaceOnUse" x1="171.2043" y1="25.1174" x2="171.6765" y2="25.1174">
		<stop  offset="0" style="stop-color:#FFCF76"/>
		<stop  offset="1" style="stop-color:#FFD489"/>
	</linearGradient>
	<path style="fill:url(#SVGID_00000040557611847683994370000003413849503624261818_);" d="M171.7,24.7l-0.5-0.3v1.1l0.5,0.3V24.7z"
		/>
	<path class="st24" d="M172.1,26.5l-2-1.1v0.6l2,1.1V26.5z"/>
	<path class="st50" d="M173.8,23.5l-2,1.1l0.2,2.4l2-1.1L173.8,23.5z"/>
	<path class="st29" d="M173.7,23.7l-1.8,1l0.1,1.2l1.8-1L173.7,23.7z"/>
	<path class="st29" d="M174,25.3l-2,1.1l0.1,0.6l2-1.1L174,25.3z"/>
	
		<linearGradient id="SVGID_00000126309176040176267530000004062724399638854063_" gradientUnits="userSpaceOnUse" x1="170.0744" y1="23.5483" x2="173.7794" y2="23.5483">
		<stop  offset="0" style="stop-color:#FFCF76"/>
		<stop  offset="1" style="stop-color:#FFD489"/>
	</linearGradient>
	<path style="fill:url(#SVGID_00000126309176040176267530000004062724399638854063_);" d="M172.1,22.5l-2,1.1l1.7,1l2-1.1
		L172.1,22.5z"/>
	<path class="st5" d="M138.8,6.9l-2.5,1.4l9.9,5.7l2.5-1.4L138.8,6.9z"/>
	<path class="st6" d="M147.2,6.7l-5.9,3.4l5.9,3.4l5.9-3.4L147.2,6.7z"/>
	<path class="st6" d="M153.1,7.8l-2-1.1v2.3l2,1.1V7.8z"/>
	<path class="st7" d="M147.2,11.2l-8.4-4.9v2.3l8.4,4.9V11.2z"/>
	<path class="st7" d="M147.2,4.4l-5.9,3.4l5.9,3.4l5.9-3.4L147.2,4.4z"/>
	<path class="st62" d="M153.1,7.8L144.7,3l-2.5-0.3l8.4,4.8L153.1,7.8z"/>
	<path class="st26" d="M142.3,2.7l-3.5,3.7l8.4,4.8l3.4-3.7L142.3,2.7z"/>
	<path class="st5" d="M228.8,4.5l-28.6,16.7l2.5,1.4l28.6-16.7L228.8,4.5z"/>
	<path class="st5" d="M180.1,6.9l-2.9,1.8l25,14.1l2.9-1.6L180.1,6.9z"/>
	<path class="st5" d="M211,4.7l-16.3,9.4l7.9,4.6l16.3-9.4L211,4.7z"/>
	<path class="st6" d="M212,5.2l-15.3,8.8l6.9,4l15.3-8.8L212,5.2z"/>
	<path class="st6" d="M218.9,6.9l-2-1.1v2.3l2,1.1V6.9z"/>
	<path class="st7" d="M203.6,15.8l-6.9-4v2.3l6.9,4V15.8z"/>
	
		<linearGradient id="SVGID_00000124872672943806571120000011670357497153560993_" gradientUnits="userSpaceOnUse" x1="206.7758" y1="808.2493" x2="209.2032" y2="803.161" gradientTransform="matrix(1 0 0 -1 0 815.4345)">
		<stop  offset="0" style="stop-color:#EDF0F7"/>
		<stop  offset="1" style="stop-color:#FAFBFD"/>
	</linearGradient>
	<path style="fill:url(#SVGID_00000124872672943806571120000011670357497153560993_);" d="M212,2.9l-15.3,8.8l6.9,4l15.3-8.8
		L212,2.9z"/>
	<path class="st7" d="M205.6,15.2l-0.5,0.3v0.6l0.5-0.3V15.2z"/>
	<path class="st7" d="M204.6,15.8l-0.5,0.3v0.6l0.5-0.3V15.8z"/>
	<path class="st7" d="M209.5,12.9l-0.5,0.3v0.6l0.5-0.3V12.9z"/>
	<path class="st7" d="M208.5,13.5l-0.5,0.3v0.6l0.5-0.3V13.5z"/>
	<path class="st7" d="M213.5,10.7l-0.5,0.3v0.6l0.5-0.3V10.7z"/>
	<path class="st7" d="M217.4,8.4l-0.5,0.3v0.6l0.5-0.3V8.4z"/>
	<path class="st7" d="M218.4,7.8l-0.5,0.3v0.6l0.5-0.3V7.8z"/>
	<path class="st7" d="M216.4,8.9l-0.5,0.3v0.6l0.5-0.3V8.9z"/>
	<path class="st7" d="M212.5,11.2l-0.5,0.3v0.6l0.5-0.3V11.2z"/>
	<path class="st6" d="M223.4,11.8l-4.4,2.6l4.9,2.9l4.4-2.6L223.4,11.8z"/>
	<path class="st6" d="M228.3,12.4l-2-1.1v2.3l2,1.1V12.4z"/>
	<path class="st7" d="M223.9,14.9l-4.9-2.9v2.3l4.9,2.9V14.9z"/>
	
		<linearGradient id="SVGID_00000074399806089717615350000002401207922434536079_" gradientUnits="userSpaceOnUse" x1="223.5708" y1="804.0282" x2="223.7554" y2="800.9367" gradientTransform="matrix(1 0 0 -1 0 815.4345)">
		<stop  offset="0" style="stop-color:#EDF0F7"/>
		<stop  offset="1" style="stop-color:#FAFBFD"/>
	</linearGradient>
	<path style="fill:url(#SVGID_00000074399806089717615350000002401207922434536079_);" d="M223.4,9.5l-4.4,2.6l4.9,2.9l4.4-2.6
		L223.4,9.5z"/>
	<path class="st6" d="M217.9,14.9l-10.4,6l4.9,2.9l10.4-6L217.9,14.9z"/>
	<path class="st6" d="M222.9,15.5l-2-1.1v2.3l2,1.1V15.5z"/>
	<path class="st7" d="M212.5,21.5l-4.9-2.9v2.3l4.9,2.9V21.5z"/>
	
		<linearGradient id="SVGID_00000032641388006900059550000000121638476858064300_" gradientUnits="userSpaceOnUse" x1="214.8224" y1="799.8024" x2="215.8343" y2="796.1553" gradientTransform="matrix(1 0 0 -1 0 815.4345)">
		<stop  offset="0" style="stop-color:#EDF0F7"/>
		<stop  offset="1" style="stop-color:#FAFBFD"/>
	</linearGradient>
	<path style="fill:url(#SVGID_00000032641388006900059550000000121638476858064300_);" d="M217.9,12.6l-10.4,6l4.9,2.9l10.4-6
		L217.9,12.6z"/>
	<path class="st5" d="M205.6,20.9l-7.4,4.3l5.9,3.4l7.4-4.3L205.6,20.9z"/>
	<path class="st6" d="M206.6,21.5l-6.4,3.7l4.9,2.9l6.4-3.7L206.6,21.5z"/>
	<path class="st6" d="M211.5,22.1l-2-1.1v2.3l2,1.1V22.1z"/>
	<path class="st7" d="M205.1,25.8l-4.9-2.9v2.3l4.9,2.9V25.8z"/>
	
		<linearGradient id="SVGID_00000070115232705506618060000013038468058930154129_" gradientUnits="userSpaceOnUse" x1="205.5974" y1="794.2945" x2="206.3088" y2="790.1816" gradientTransform="matrix(1 0 0 -1 0 815.4345)">
		<stop  offset="0" style="stop-color:#EDF0F7"/>
		<stop  offset="1" style="stop-color:#FAFBFD"/>
	</linearGradient>
	<path style="fill:url(#SVGID_00000070115232705506618060000013038468058930154129_);" d="M206.6,19.2l-6.4,3.7l4.9,2.9l6.4-3.7
		L206.6,19.2z"/>
	<path class="st5" d="M220.4,20.9l-5.9,3.4l5.9,3.4l5.9-3.4L220.4,20.9z"/>
	<path class="st47" d="M221.5,26.7c0.2,0.1,0.4,0,0.4-0.2c0-0.3-0.2-0.6-0.4-0.7c-0.2-0.1-0.4,0-0.4,0.2
		C221,26.3,221.2,26.6,221.5,26.7z"/>
	<path class="st29" d="M221.8,26.8l-0.2,0.1l0-0.1L221.8,26.8L221.8,26.8z"/>
	<path class="st67" d="M220.9,25.8l0.2-0.1l0.1,0.1L221,26L220.9,25.8z"/>
	<path class="st24" d="M221.2,26.9c0.2,0.1,0.4,0,0.4-0.2c0-0.3-0.2-0.6-0.4-0.7c-0.2-0.1-0.4,0-0.4,0.2S221,26.7,221.2,26.9z"/>
	<path class="st47" d="M226.2,24c0.2,0.1,0.4,0,0.4-0.2c0-0.3-0.2-0.6-0.4-0.7c-0.2-0.1-0.4,0-0.4,0.2C225.8,23.5,226,23.8,226.2,24
		z"/>
	<path class="st29" d="M226.5,24l-0.2,0.1l0-0.1L226.5,24L226.5,24z"/>
	<path class="st67" d="M225.7,23.1l0.2-0.1l0.1,0.1l-0.3,0.1L225.7,23.1z"/>
	<path class="st24" d="M226,24.1c0.2,0.1,0.4,0,0.4-0.2c0-0.3-0.2-0.6-0.4-0.7c-0.2-0.1-0.4,0-0.4,0.2S225.7,24,226,24.1z"/>
	<path class="st47" d="M218.1,24.8c0.2,0.1,0.4,0,0.4-0.2c0-0.3-0.2-0.6-0.4-0.7c-0.2-0.1-0.4,0-0.4,0.2
		C217.7,24.3,217.9,24.7,218.1,24.8z"/>
	<path class="st29" d="M218.4,24.8l-0.2,0.1l0-0.1L218.4,24.8L218.4,24.8z"/>
	<path class="st67" d="M217.6,23.9l0.2-0.1l0.1,0.1l-0.3,0.1L217.6,23.9z"/>
	<path class="st24" d="M217.9,24.9c0.2,0.1,0.4,0,0.4-0.2c0-0.3-0.2-0.6-0.4-0.7c-0.2-0.1-0.4,0-0.4,0.2
		C217.4,24.5,217.6,24.8,217.9,24.9z"/>
	<path class="st68" d="M221.4,21.5l-4,2.3l4.4,2.6l4-2.3L221.4,21.5z"/>
	
		<linearGradient id="SVGID_00000142140873891991158530000002771473191036067509_" gradientUnits="userSpaceOnUse" x1="217.4446" y1="19.7762" x2="222.3853" y2="19.7762">
		<stop  offset="0" style="stop-color:#FFCF76"/>
		<stop  offset="1" style="stop-color:#FFD489"/>
	</linearGradient>
	<path style="fill:url(#SVGID_00000142140873891991158530000002771473191036067509_);" d="M222.4,15.8l-4.9,2.9v5.1l4.9-2.9V15.8z"
		/>
	<path class="st50" d="M221.9,21.2l-4.9-2.9l0.5,5.4l4.4,2.6V21.2z"/>
	<path class="st24" d="M226.8,18.3l-4.4-2.6v5.1l4.4,2.6V18.3z"/>
	<path class="st29" d="M227.3,18.1l-5.4,3.1v5.1l4.9-2.9L227.3,18.1z"/>
	
		<linearGradient id="SVGID_00000154402540617253821240000006833612660830783385_" gradientUnits="userSpaceOnUse" x1="221.8894" y1="16.7778" x2="227.3241" y2="16.7778">
		<stop  offset="0" style="stop-color:#FFCF76"/>
		<stop  offset="1" style="stop-color:#FFD489"/>
	</linearGradient>
	<path style="fill:url(#SVGID_00000154402540617253821240000006833612660830783385_);" d="M222.4,15.2l-0.5,0.3l4.9,2.9l0.5-0.3
		L222.4,15.2z"/>
	
		<linearGradient id="SVGID_00000072268454956693601770000008139326192756414387_" gradientUnits="userSpaceOnUse" x1="216.9484" y1="19.6305" x2="222.3832" y2="19.6305">
		<stop  offset="0" style="stop-color:#FFCF76"/>
		<stop  offset="1" style="stop-color:#FFD489"/>
	</linearGradient>
	<path style="fill:url(#SVGID_00000072268454956693601770000008139326192756414387_);" d="M217.4,18.1l-0.5,0.3l4.9,2.9l0.5-0.3
		L217.4,18.1z"/>
	
		<linearGradient id="SVGID_00000178179204026221472760000014732138050109024675_" gradientUnits="userSpaceOnUse" x1="221.3946" y1="19.6299" x2="226.8294" y2="19.6299">
		<stop  offset="0" style="stop-color:#FFCF76"/>
		<stop  offset="1" style="stop-color:#FFD489"/>
	</linearGradient>
	<path style="fill:url(#SVGID_00000178179204026221472760000014732138050109024675_);" d="M226.3,18.1l-4.9,2.9l0.5,0.3l4.9-2.9
		L226.3,18.1z"/>
	
		<linearGradient id="SVGID_00000061453296404173608260000014784715200316699528_" gradientUnits="userSpaceOnUse" x1="216.9473" y1="17.062" x2="222.3821" y2="17.062">
		<stop  offset="0" style="stop-color:#FFCF76"/>
		<stop  offset="1" style="stop-color:#FFD489"/>
	</linearGradient>
	<path style="fill:url(#SVGID_00000061453296404173608260000014784715200316699528_);" d="M221.9,15.5l-4.9,2.9l0.5,0.3l4.9-2.9
		L221.9,15.5z"/>
	
		<linearGradient id="SVGID_00000142141574564264143180000010047721685840233400_" gradientUnits="userSpaceOnUse" x1="218.0162" y1="22.6921" x2="219.3985" y2="22.6921">
		<stop  offset="0" style="stop-color:#FFCF76"/>
		<stop  offset="1" style="stop-color:#FFD489"/>
	</linearGradient>
	<path style="fill:url(#SVGID_00000142141574564264143180000010047721685840233400_);" d="M218.8,22.4l0.2,0.3l-0.3-0.8l-0.6-0.3
		l0.2,0.3l-0.3,0.4c0,0,0.2,0.6,0.4,0.9c0.1,0.1,0.1,0.3,0.2,0.3l0.8,0.5v-0.7l-0.9-0.5L218.8,22.4z"/>
	
		<linearGradient id="SVGID_00000108296620381267520750000009129011387979516094_" gradientUnits="userSpaceOnUse" x1="218.526" y1="21.6084" x2="220.3938" y2="21.6084">
		<stop  offset="0" style="stop-color:#FFCF76"/>
		<stop  offset="1" style="stop-color:#FFD489"/>
	</linearGradient>
	<path style="fill:url(#SVGID_00000108296620381267520750000009129011387979516094_);" d="M219.5,22l0.6,0.4l0.3-0.5l-0.2,0
		l-0.3-0.7c0,0-0.5-0.3-0.7-0.4c-0.1-0.1-0.2-0.1-0.2,0l-0.4,0.6L219,22l0.4-0.6l0.3,0.6L219.5,22z"/>
	
		<linearGradient id="SVGID_00000142152968880542097520000015591636719866792845_" gradientUnits="userSpaceOnUse" x1="219.4966" y1="23.4763" x2="220.8198" y2="23.4763">
		<stop  offset="0" style="stop-color:#FFCF76"/>
		<stop  offset="1" style="stop-color:#FFD489"/>
	</linearGradient>
	<path style="fill:url(#SVGID_00000142152968880542097520000015591636719866792845_);" d="M220.8,23.6l-0.4-1l-0.5,0l0.4,1.1
		l-0.5-0.3l0-0.3l-0.3,0.4l0.3,0.8l0-0.3l0.6,0.3c0,0,0.2-0.3,0.4-0.5C220.8,23.8,220.8,23.7,220.8,23.6z"/>
	<path class="st24" d="M224,23.1l0.2,0l-0.3-0.5l-0.6,0.4l0.2,0l-0.3,0.7c0,0,0.2,0.3,0.4,0.5c0.1,0.1,0.1,0.1,0.2,0l0.8-0.5v-0.7
		l-0.9,0.5L224,23.1z"/>
	<path class="st24" d="M224.7,21.9l0.6-0.3l0.3-0.8l-0.2,0.2l-0.3-0.4c0,0-0.4,0.3-0.7,0.4c-0.1,0.1-0.2,0.2-0.2,0.3l-0.4,1l0.5,0
		l0.4-1.1l0.3,0.3L224.7,21.9z"/>
	<path class="st24" d="M226,22l-0.4-0.6l-0.5,0.6l0.4,0.6l-0.5,0.3l0-0.3l-0.3,0.7l0.3,0.4l0-0.3l0.6-0.3c0,0,0.2-0.6,0.4-0.9
		C226,22.1,226,22,226,22z"/>
	<path class="st5" d="M225.8,6.4l-3,1.7l36,21.6l3-1.7L225.8,6.4z"/>
	<path class="st5" d="M288.9,10.5l-32.4,17.7l2.5,1.4l32.4-17.7L288.9,10.5z"/>
	<path class="st77" d="M272.7,6.3l-13.8,8l9.4,5.4l13.8-8L272.7,6.3z"/>
	<path class="st6" d="M281.2,9.4l-12.8,7.4l4,2.3l12.8-7.4L281.2,9.4z"/>
	<path class="st6" d="M285.2,9.4l-2-1.1v2.3l2,1.1V9.4z"/>
	<path class="st7" d="M272.3,16.8l-8.9-5.1V14l8.9,5.1V16.8z"/>
	<path class="st6" d="M271.9,17.1l-2.5-1.4v1.7l2.5,1.4V17.1z"/>
	<path class="st7" d="M280.3,12.8l-7.4,4.3v1.7l7.4-4.3V12.8z"/>
	
		<linearGradient id="SVGID_00000072267085260578188400000015654463758770217634_" gradientUnits="userSpaceOnUse" x1="273.5629" y1="807.0909" x2="276.0186" y2="799.8812" gradientTransform="matrix(1 0 0 -1 0 815.4345)">
		<stop  offset="0" style="stop-color:#EDF0F7"/>
		<stop  offset="0.2" style="stop-color:#F2F4F9"/>
		<stop  offset="0.42" style="stop-color:#F8F9FC"/>
		<stop  offset="1" style="stop-color:#FAFBFD"/>
	</linearGradient>
	<path style="fill:url(#SVGID_00000072267085260578188400000015654463758770217634_);" d="M276.3,4.3l-12.8,7.4l8.9,5.1l12.8-7.4
		L276.3,4.3z"/>
	
		<linearGradient id="SVGID_00000083787225023016797340000012368411268175835305_" gradientUnits="userSpaceOnUse" x1="275.766" y1="812.8742" x2="277.89" y2="808.1737" gradientTransform="matrix(1 0 0 -1 0 815.4345)">
		<stop  offset="0" style="stop-color:#EDF0F7"/>
		<stop  offset="1" style="stop-color:#F7F9FC"/>
	</linearGradient>
	<path style="fill:url(#SVGID_00000083787225023016797340000012368411268175835305_);" d="M278.8,0l-10.4,6l6.4,3.7l10.4-6L278.8,0z
		"/>
	<path class="st7" d="M274.8,9.7L268.4,6v5.7l6.4,3.7V9.7z"/>
	<path class="st6" d="M285.2,3.7l-10.3,6v5.7l10.3-6V3.7z"/>
	
		<linearGradient id="SVGID_00000164506003079132973400000013524597556801305770_" gradientUnits="userSpaceOnUse" x1="275.766" y1="812.8742" x2="277.89" y2="808.1737" gradientTransform="matrix(1 0 0 -1 0 815.4345)">
		<stop  offset="0" style="stop-color:#EDF0F7"/>
		<stop  offset="1" style="stop-color:#FAFBFD"/>
	</linearGradient>
	<path style="fill:url(#SVGID_00000164506003079132973400000013524597556801305770_);" d="M278.8,0l-10.4,6l6.4,3.7l10.4-6L278.8,0z
		"/>
	
		<linearGradient id="SVGID_00000117641237585402910750000000814141320410191539_" gradientUnits="userSpaceOnUse" x1="274.9913" y1="811.9052" x2="275.9066" y2="809.0614" gradientTransform="matrix(1 0 0 -1 0 815.4345)">
		<stop  offset="0" style="stop-color:#EDF0F7"/>
		<stop  offset="1" style="stop-color:#FAFBFD"/>
	</linearGradient>
	<path style="fill:url(#SVGID_00000117641237585402910750000000814141320410191539_);" d="M274.8,2.8l-2.5,1.4l3.5,2l2.5-1.4
		L274.8,2.8z"/>
	<path class="st7" d="M275.8,6.3l-3.5-2v1.1l3.5,2V6.3z"/>
	<path class="st6" d="M278.3,4.8l-2.5,1.4v1.1l2.5-1.4V4.8z"/>
	<path class="st7" d="M282.7,10.8l-2,1.1v2.3l2-1.1V10.8z"/>
	<path class="st6" d="M282.2,11.7l-1,0.6V14l1-0.6V11.7z"/>
	<path class="st7" d="M276.3,11.7l-1,0.6V14l1-0.6V11.7z"/>
	<path class="st7" d="M276.3,9.4l-1,0.6v1.7l1-0.6V9.4z"/>
	<path class="st7" d="M277.8,10.9l-1,0.6v1.7l1-0.6V10.9z"/>
	<path class="st7" d="M277.8,8.6l-1,0.6v1.7l1-0.6V8.6z"/>
	<path class="st7" d="M279.2,10l-1,0.6v1.7l1-0.6V10z"/>
	<path class="st7" d="M279.2,7.7l-1,0.6V10l1-0.6V7.7z"/>
	<path class="st7" d="M280.7,9.2l-1,0.6v1.7l1-0.6V9.2z"/>
	<path class="st7" d="M280.7,6.9l-1,0.6v1.7l1-0.6V6.9z"/>
	<path class="st7" d="M282.2,8.3l-1,0.6v1.7l1-0.6V8.3z"/>
	<path class="st7" d="M282.2,6l-1,0.6v1.7l1-0.6V6z"/>
	<path class="st7" d="M283.7,7.4l-1,0.6v1.7l1-0.6V7.4z"/>
	<path class="st7" d="M283.7,5.2l-1,0.6v1.7l1-0.6V5.2z"/>
	<path class="st7" d="M285.2,3.7l-1,0.6v8l1-0.6V3.7z"/>
	<path class="st77" d="M250.5,15.1l-4,2.3l12.8,7.4l4-2.3L250.5,15.1z"/>
	<path class="st6" d="M257.9,15.4l-5.9,3.4l8.4,4.8l5.9-3.4L257.9,15.4z"/>
	<path class="st6" d="M269.4,18l-2-1.1v2.3l2,1.1V18z"/>
	<path class="st7" d="M260.4,21.4l-11.9-6.8v2.3l11.9,6.8V21.4z"/>
	<path class="st7" d="M254,19.4L248,16v1.1l5.9,3.4V19.4z"/>
	<path class="st6" d="M254.5,19.1l-0.5,0.3v1.1l0.5-0.3V19.1z"/>
	<path class="st41" d="M248.5,15.7L248,16l5.9,3.4l0.5-0.3L248.5,15.7z"/>
	<path class="st7" d="M260.4,23.1l-3.5-2v1.1l3.5,2V23.1z"/>
	<path class="st6" d="M263.8,21.1l-3.5,2v1.1l3.5-2V21.1z"/>
	<path class="st41" d="M257.4,20.8l-0.5,0.3l3.5,2l0.5-0.3L257.4,20.8z"/>
	<path class="st41" d="M263.4,20.8l-3,1.7l0.5,0.3l3-1.7L263.4,20.8z"/>
	
		<linearGradient id="SVGID_00000129185777770316752520000002838057598653775510_" gradientUnits="userSpaceOnUse" x1="256.7025" y1="802.5788" x2="258.7747" y2="792.9268" gradientTransform="matrix(1 0 0 -1 0 815.4345)">
		<stop  offset="0" style="stop-color:#EDF0F7"/>
		<stop  offset="1" style="stop-color:#FAFBFD"/>
	</linearGradient>
	<path style="fill:url(#SVGID_00000129185777770316752520000002838057598653775510_);" d="M254.5,11.1l-5.9,3.4l11.9,6.8l5.9-3.4
		L254.5,11.1z"/>
	<path class="st77" d="M278,18.4l-8,4.6l6.5,3.7l8-4.6L278,18.4z"/>
	<path class="st24" d="M280,18.4l-8,4.6l5.5,3.2l8-4.6L280,18.4z"/>
	<path class="st24" d="M280,11.5l-8,4.6V23l8-4.6V11.5z"/>
	
		<linearGradient id="SVGID_00000037652583250923255830000013920829726896660907_" gradientUnits="userSpaceOnUse" x1="272.5728" y1="21.8249" x2="285.507" y2="21.8249">
		<stop  offset="0" style="stop-color:#FFCF76"/>
		<stop  offset="1" style="stop-color:#FFD489"/>
	</linearGradient>
	<path style="fill:url(#SVGID_00000037652583250923255830000013920829726896660907_);" d="M280.5,18.1l-7.9,4.6l5,2.9l7.9-4.6
		L280.5,18.1z"/>
	<path class="st47" d="M285.5,21l-8,4.6v0.6l8-4.6V21z"/>
	<path class="st24" d="M280,11.5l-8,4.6l0.5,0.3l8-4.6L280,11.5z"/>
	<path class="st24" d="M280.5,18.7l-7,4l0.5,0.3l7-4L280.5,18.7z"/>
	<path class="st24" d="M281.5,19.2l-7,4l0.5,0.3l7-4L281.5,19.2z"/>
	<path class="st24" d="M282.5,19.8l-7,4l0.5,0.3l7-4L282.5,19.8z"/>
	<path class="st24" d="M281,21.8l-2,1.1l1,0.6l2-1.1L281,21.8z"/>
	<path class="st47" d="M280.5,11.8l-8,4.6v6.3l8-4.6V11.8z"/>
	<path class="st3" d="M280,12.7l-7,4v5.2l7-4V12.7z"/>
	<path class="st6" d="M23.7,9.5L3.5,21.2l2.5,1.4l20.3-11.7L23.7,9.5z"/>
	<path class="st6" d="M7.4,20.6l-2.5,1.4l5.9,3.4l2.5-1.4L7.4,20.6z"/>
	<path class="st5" d="M25.7,11.2L9.4,20.6l7.9,4.6l16.3-9.4L25.7,11.2z"/>
	<path class="st6" d="M26.7,11.8l-15.3,8.8l6.9,4l15.3-8.8L26.7,11.8z"/>
	<path class="st6" d="M33.6,13.5l-2-1.1v2.3l2,1.1V13.5z"/>
	<path class="st7" d="M18.3,22.3l-6.9-4v2.3l6.9,4V22.3z"/>
	
		<linearGradient id="SVGID_00000003076461655685550100000007848819824397797803_" gradientUnits="userSpaceOnUse" x1="21.3477" y1="801.7474" x2="23.9678" y2="796.6201" gradientTransform="matrix(1 0 0 -1 0 815.4345)">
		<stop  offset="0" style="stop-color:#EDF0F7"/>
		<stop  offset="1" style="stop-color:#FAFBFD"/>
	</linearGradient>
	<path style="fill:url(#SVGID_00000003076461655685550100000007848819824397797803_);" d="M26.7,9.5l-15.3,8.8l6.9,4l15.3-8.8
		L26.7,9.5z"/>
	<path class="st7" d="M20.3,21.8l-0.5,0.3v0.6l0.5-0.3V21.8z"/>
	<path class="st7" d="M19.3,22.4l-0.5,0.3v0.6l0.5-0.3V22.4z"/>
	<path class="st7" d="M24.2,19.5l-0.5,0.3v0.6l0.5-0.3V19.5z"/>
	<path class="st7" d="M23.2,20.1l-0.5,0.3v0.6l0.5-0.3V20.1z"/>
	<path class="st7" d="M28.2,17.2l-0.5,0.3v0.6l0.5-0.3V17.2z"/>
	<path class="st7" d="M32.1,14.9l-0.5,0.3v0.6l0.5-0.3V14.9z"/>
	<path class="st7" d="M33.1,14.4l-0.5,0.3v0.6l0.5-0.3V14.4z"/>
	<path class="st7" d="M31.1,15.5l-0.5,0.3v0.6l0.5-0.3V15.5z"/>
	<path class="st7" d="M27.2,17.8l-0.5,0.3v0.6l0.5-0.3V17.8z"/>
	<path class="st85" d="M15.1,24.8l-2.5,1.4l0.2,0.1l2.5-1.4L15.1,24.8z"/>
	<path class="st6" d="M12.8,25.5l-0.5,0.3v2.3l0.5-0.3V25.5z"/>
	<path class="st7" d="M12.4,25.8l-0.5-0.3v2.3l0.5,0.3V25.8z"/>
	<path class="st85" d="M12.4,25.2l-0.5,0.3l0.5,0.3l0.5-0.3L12.4,25.2z"/>
	<path class="st6" d="M15.3,24.9l-2.7,1.6v0.3l2.7-1.6V24.9z"/>
	<path class="st6" d="M6.2,25.9l-4.4,2.6l4.9,2.9l4.4-2.6L6.2,25.9z"/>
	<path class="st6" d="M11.1,26.5l-2-1.1v2.3l2,1.1V26.5z"/>
	<path class="st7" d="M6.7,29l-4.9-2.9v2.3l4.9,2.9V29z"/>
	
		<linearGradient id="SVGID_00000014632676481786539170000017733559287347433656_" gradientUnits="userSpaceOnUse" x1="6.5108" y1="790.542" x2="6.3091" y2="787.1962" gradientTransform="matrix(1 0 0 -1 0 815.4345)">
		<stop  offset="0" style="stop-color:#EDF0F7"/>
		<stop  offset="1" style="stop-color:#FAFBFD"/>
	</linearGradient>
	<path style="fill:url(#SVGID_00000014632676481786539170000017733559287347433656_);" d="M6.2,23.6l-4.4,2.6L6.7,29l4.4-2.6
		L6.2,23.6z"/>
	<path class="st6" d="M13.8,8.4l-4.4,2.6l4.9,2.9l4.4-2.6L13.8,8.4z"/>
	<path class="st6" d="M18.8,8.9l-2-1.1v2.3l2,1.1V8.9z"/>
	<path class="st7" d="M14.3,11.5L9.4,8.6v2.3l4.9,2.9V11.5z"/>
	
		<linearGradient id="SVGID_00000142871423316301114150000000276613792090338462_" gradientUnits="userSpaceOnUse" x1="14.123" y1="807.8352" x2="13.9949" y2="804.0637" gradientTransform="matrix(1 0 0 -1 0 815.4345)">
		<stop  offset="0" style="stop-color:#EDF0F7"/>
		<stop  offset="1" style="stop-color:#FAFBFD"/>
	</linearGradient>
	<path style="fill:url(#SVGID_00000142871423316301114150000000276613792090338462_);" d="M13.8,6.1L9.4,8.6l4.9,2.9l4.4-2.6
		L13.8,6.1z"/>
	<path class="st5" d="M7.4,10.9L0,15.2l5.9,3.4l7.4-4.3L7.4,10.9z"/>
	<path class="st6" d="M8.4,11.5L2,15.2l4.9,2.9l6.4-3.7L8.4,11.5z"/>
	<path class="st6" d="M13.3,10.4L9.1,7.9v4l4.2,2.4V10.4z"/>
	<path class="st7" d="M6.9,14.1L2,11.2v4l4.9,2.9V14.1z"/>
	
		<linearGradient id="SVGID_00000078751658694025216750000002926380268284834960_" gradientUnits="userSpaceOnUse" x1="7.3754" y1="806.2609" x2="8.0519" y2="802.4119" gradientTransform="matrix(1 0 0 -1 0 815.4345)">
		<stop  offset="0" style="stop-color:#EDF0F7"/>
		<stop  offset="1" style="stop-color:#FAFBFD"/>
	</linearGradient>
	<path style="fill:url(#SVGID_00000078751658694025216750000002926380268284834960_);" d="M8.4,7.5L2,11.2l4.9,2.9l6.4-3.7L8.4,7.5z
		"/>
	<path class="st24" d="M23.5,24.6l0.7,0.4v5.7l-0.7-0.4V24.6z"/>
	<path class="st47" d="M34.4,19.1L24.2,25v5.7l10.2-5.9V19.1z"/>
	
		<linearGradient id="SVGID_00000029767072181647416130000016040902827244217749_" gradientUnits="userSpaceOnUse" x1="23.5498" y1="21.8845" x2="34.4206" y2="21.8845">
		<stop  offset="0" style="stop-color:#FFCF76"/>
		<stop  offset="1" style="stop-color:#FFD489"/>
	</linearGradient>
	<path style="fill:url(#SVGID_00000029767072181647416130000016040902827244217749_);" d="M33.8,18.7l-10.2,5.9l0.7,0.4l10.2-5.9
		L33.8,18.7z"/>
	<path class="st24" d="M27.7,25.6c0,0.2,0,0.3-0.1,0.5c-0.1,0.2-0.2,0.3-0.4,0.5l0.6,0.6l-0.5,0.3l-0.6-0.6L26.4,27v0.9L26,28.2
		v-2.3l1-0.6c0.2-0.1,0.4-0.2,0.5-0.1C27.6,25.2,27.7,25.4,27.7,25.6z M26.4,26v0.6l0.6-0.3c0.1-0.1,0.2-0.1,0.2-0.2
		c0.1-0.1,0.1-0.2,0.1-0.3c0-0.1,0-0.1-0.1-0.2c-0.1,0-0.1,0-0.2,0.1L26.4,26z"/>
	<path class="st24" d="M29.4,24.3l-1,0.6v0.5l1-0.6v0.4l-1,0.6v0.5l1-0.6v0.4L28,27v-2.3l1.4-0.8V24.3z"/>
	<path class="st24" d="M31.1,22.9l0.4-0.2V25l-0.4,0.2l-1-1.1v1.6L29.7,26v-2.3l0.4-0.2l1,1.1V22.9z"/>
	<path class="st24" d="M31.7,22.6l1.7-1V22l-0.7,0.4v1.9l-0.4,0.2v-1.9L31.7,23V22.6z"/>
</g>
</svg>
