<?xml version="1.0" encoding="utf-8"?>
<!-- Generator: Adobe Illustrator 27.4.1, SVG Export Plug-In . SVG Version: 6.00 Build 0)  -->
<svg version="1.1" id="Layer_1" xmlns="http://www.w3.org/2000/svg" xmlns:xlink="http://www.w3.org/1999/xlink" x="0px" y="0px"
	 viewBox="0 0 361.7 362.2" style="enable-background:new 0 0 361.7 362.2;" xml:space="preserve">
<style type="text/css">
	.st0{fill:#8F8F8F;}
</style>
<g>
	<path class="st0" d="M360.4,348.5c-3.8-10.1-7.7-20.1-11.5-30.2c-9.7-25.3-19.7-51.5-29.4-77.3c-2-5.2-5.3-7.5-10.8-7.5
		c0,0-0.1,0-0.1,0c-18.4,0.1-37,0.1-55.1,0.1c-6,0-12.1,0-18.1,0c0,0,0,0,0-0.1c16.2-27.2,27.3-50.5,34.9-73.4
		c8.8-26.4,12-48.4,10.3-69.1c-2.3-26.6-15.7-51.7-37-68.8C222.3,5.1,194.8-2.7,168.2,0.8c-24.6,3.3-47.1,15.3-63.1,33.8
		C89,53.2,80.3,77.1,80.6,102c0.2,17.1,3.3,34.8,9.4,54.1c7.7,24.2,19.2,48.9,36.2,77.5l-17.9,0c-18.3,0-37.2,0-55.8,0
		c0,0,0,0-0.1,0c-5,0-8.3,2.3-10.1,7c-3.6,9.6-7.3,19.3-10.9,28.6c-1.5,3.8-2.9,7.7-4.4,11.5L22,294.1c-7,18.3-14,36.6-20.9,55
		c-1.5,3.9-1.4,7.1,0.2,9.5c1.6,2.4,4.6,3.6,9,3.6l0.6,0h52.5c95.9,0,191.7,0,287.6,0c3.1,0,7.4-0.4,9.6-3.6
		C362.6,355.4,361.5,351.3,360.4,348.5z M131.4,326.4c-5.5,2-11,4-16.5,5.9c-1.7,0.6-3.4,1.2-5.1,1.7c-3.5,1.1-7.2,2.3-10.6,3.9
		c-13.7,6.3-28.7,8.8-45.8,7.9c-7.7-0.4-15.4-0.3-23-0.2c-3.3,0-6.8,0.1-10.1,0.1H20c0.2-0.6,0.4-1.1,0.6-1.6c3-8,6.1-15.9,9.1-23.9
		c8.5-22.4,17.4-45.5,26-68.3c0.8-2,1-2.1,2.6-2c3.3,0.2,6.5,0.1,9.7,0.1c2.6,0,5.3,0,7.9,0.1c0.6,0,1.5,0.5,1.7,0.7
		c17.6,22.8,35.5,46,52.8,68.4l4.6,5.9L131.4,326.4z M212.3,239.2c-7.2,11-14.7,21.7-22.7,33c-2.8,4-5.7,8-8.5,12.1
		c-1.5-2-3-4-4.4-5.9c-4.7-6.3-9.1-12.2-13.3-18.2c-24.3-34.6-41-64.9-52.7-95.3c-9-23.6-13.4-43.7-13.6-63.3
		c-0.2-20.6,7-40.4,20.3-55.9c13.4-15.5,32-25.6,52.3-28.4c22.6-3.1,45,3.1,63.2,17.5c18,14.3,29.1,34.6,31.2,57.2
		c1.7,18.6-1.2,37.8-9.3,62.3C245.6,181.7,231.7,209.5,212.3,239.2z M135,249.9c1.2,0,1.7,0.2,2.6,1.5c12,16.7,23.8,33,35.2,48.4
		c2.6,3.6,5.3,5.3,8.1,5.3c0,0,0,0,0,0c2.8,0,5.4-1.7,7.9-5.2c11.4-15.5,23.3-31.8,35.2-48.4c1.1-1.5,1.6-1.7,2.9-1.7
		c24.9,0.1,50.8,0.1,76.7,0c1.6,0,1.7,0.1,2,1.1c1.1,3.4,2.4,6.7,3.7,10.1c0.2,0.6,0.4,1.1,0.7,1.7l-9,3.2c-7.1,2.5-14.1,5-21.2,7.5
		l-23.4,8.3c-33.9,12-68.9,24.5-103.3,36.8c-1.9,0.7-2.1,0.6-3.3-1c-13.2-17.3-26.6-34.8-39.7-51.7c-4.1-5.4-8.2-10.7-12.4-16.1
		c3.3,0,6.6,0,9.8,0C116.6,250,125.9,250,135,249.9z M246,303.1l0.1-0.1c0.2-0.1,0.4-0.1,0.6-0.2c0,0,0,0,0,0
		c8.6,11.3,17.5,22.8,26,33.9c2.2,2.9,4.5,5.8,6.7,8.7H126.9C166.6,331.4,206.3,317.3,246,303.1z M341.7,345.7l-5.4,0
		c-11.2,0-22.9,0-34.3-0.1c-0.8,0-1.8-0.5-2-0.7c-10.9-13.9-21.8-28.2-32.4-42l-4.4-5.7l52.9-18.8L341.7,345.7z"/>
	<path class="st0" d="M181.6,53c-0.2,0-0.3,0-0.5,0c-12.6,0-24.4,4.8-33.4,13.6c-8.9,8.8-13.9,20.4-14,32.9
		c-0.1,12.8,4.7,24.8,13.5,33.8c8.8,9,20.6,14,33.4,14.1c0.1,0,0.3,0,0.4,0c12.4,0,24.1-4.8,33-13.5c9-8.8,14.1-20.5,14.2-33
		C228.3,74.8,207.4,53.3,181.6,53z M180.9,69.5C180.9,69.5,180.9,69.5,180.9,69.5c8.2,0,15.9,3.2,21.7,9c5.8,5.8,9,13.6,9,21.9
		c0,16.9-13.8,30.6-30.6,30.6c0,0,0,0,0,0c-17,0-30.8-13.8-30.9-30.7c0-8.2,3.2-15.9,9-21.7C164.9,72.7,172.6,69.5,180.9,69.5z"/>
</g>
</svg>
