<?xml version="1.0" encoding="utf-8"?>
<!-- Generator: Adobe Illustrator 27.4.1, SVG Export Plug-In . SVG Version: 6.00 Build 0)  -->
<svg version="1.1" id="Layer_1" xmlns="http://www.w3.org/2000/svg" xmlns:xlink="http://www.w3.org/1999/xlink" x="0px" y="0px"
	 viewBox="0 0 44.5 41.2" style="enable-background:new 0 0 44.5 41.2;" xml:space="preserve">
<style type="text/css">
	.st0{fill:#FAFAFA;}
	.st1{fill:#070707;}
	.st2{fill:#FCAD17;}
	.st3{fill:#FFFFFF;}
	.st4{fill:#FAAD18;}
	.st5{fill:#EAEFF4;}
	.st6{fill:#D9E3EC;}
	.st7{fill:#C6D3E3;}
	.st8{fill:url(#SVGID_1_);}
	.st9{fill:url(#SVGID_00000045589006106069873570000004998434803148130964_);}
	.st10{fill:#FAFBFD;}
	.st11{fill:url(#SVGID_00000008845861400050131950000013852751090550912958_);}
	.st12{fill:url(#SVGID_00000072243701767650055480000014995972792172745370_);}
	.st13{fill:#F4A631;}
	.st14{fill:#FFCF76;}
	.st15{fill:url(#SVGID_00000181802790195779039540000000710429842467167413_);}
	.st16{fill:url(#SVGID_00000159450026343237686570000012598027437183638949_);}
	.st17{fill:url(#SVGID_00000085965110620006170620000008059648834929278899_);}
	.st18{fill-rule:evenodd;clip-rule:evenodd;fill:#F4A631;}
	.st19{fill-rule:evenodd;clip-rule:evenodd;fill:#FFE6B8;}
	.st20{fill:#FFE6B8;}
	.st21{fill-rule:evenodd;clip-rule:evenodd;fill:#FFD792;}
	.st22{fill:#FFD792;}
	.st23{fill:#F4F6F9;}
	.st24{fill:#F7BB44;}
	.st25{fill-rule:evenodd;clip-rule:evenodd;fill:#FAFBFD;}
	.st26{fill-rule:evenodd;clip-rule:evenodd;fill:#D9E3EC;}
	.st27{fill-rule:evenodd;clip-rule:evenodd;fill:#FFCF76;}
	.st28{fill:url(#SVGID_00000150101587654215488270000010560922768611537829_);}
	.st29{fill-rule:evenodd;clip-rule:evenodd;fill:#FFDEA4;}
	.st30{fill:#FCBA39;}
	.st31{fill:url(#SVGID_00000033365680774669101310000018391927062096066711_);}
	.st32{fill:url(#SVGID_00000026159355358298118440000001637104704908007307_);}
	.st33{fill:url(#SVGID_00000050638457513889138900000003825440252981077396_);}
	.st34{fill:url(#SVGID_00000172416339886298278080000002328850229984348040_);}
	.st35{fill:url(#SVGID_00000118381459214927076650000017513486869107138196_);}
	.st36{fill:url(#SVGID_00000159435138626760726010000014845719820733685905_);}
	.st37{fill:url(#SVGID_00000166656367101106481300000002989963353755902083_);}
	.st38{fill:url(#SVGID_00000139998871669049305310000002652099939908072624_);}
	.st39{fill:url(#SVGID_00000005973866157240207760000006874837054975901065_);}
	.st40{fill:url(#SVGID_00000074437715288233640640000016795700673107061923_);}
	.st41{fill:#F5F7FB;}
	.st42{fill:url(#SVGID_00000099626062929501294640000005127245028195595139_);}
	.st43{fill-rule:evenodd;clip-rule:evenodd;fill:url(#SVGID_00000108999124038084386740000006052593400710041223_);}
	.st44{fill-rule:evenodd;clip-rule:evenodd;fill:#EE5635;}
	.st45{fill:#EE5635;}
	.st46{fill:#F4745B;}
	.st47{fill:#FFDEA4;}
	.st48{fill:url(#SVGID_00000127761362732835140620000005929027964557589918_);}
	.st49{fill:url(#SVGID_00000099643949077289942220000006234551258903652738_);}
	.st50{fill-rule:evenodd;clip-rule:evenodd;fill:#F7BB44;}
	.st51{fill:url(#SVGID_00000080896919652191486370000009469361929923463071_);}
	.st52{fill:url(#SVGID_00000150097680285051105640000012502277019527044755_);}
	.st53{fill-rule:evenodd;clip-rule:evenodd;fill:url(#SVGID_00000004521834976584765010000016296426090593731736_);}
	.st54{fill-rule:evenodd;clip-rule:evenodd;fill:#4A8DE6;}
	.st55{fill:url(#SVGID_00000059285714099132391910000016436373845888463282_);}
	.st56{fill-rule:evenodd;clip-rule:evenodd;fill:url(#SVGID_00000062899793501876163340000001375654741873977009_);}
	.st57{fill:url(#SVGID_00000067957504612127503320000001792196797934768789_);}
	.st58{fill-rule:evenodd;clip-rule:evenodd;fill:#5D9EF2;}
	.st59{fill:url(#SVGID_00000010288155946474572390000011781652085042594198_);}
	.st60{fill:url(#SVGID_00000135667540277304436820000017253957814607444111_);}
	.st61{fill:url(#SVGID_00000146490660292418573710000010758810766207177393_);}
	.st62{fill-rule:evenodd;clip-rule:evenodd;fill:#F2F4F9;}
	.st63{fill:url(#SVGID_00000003065382654956043580000010285499682136949694_);}
	.st64{fill:url(#SVGID_00000009573309822313366090000009223321167186941870_);}
	.st65{fill:url(#SVGID_00000173872393383412814340000004701061979866580359_);}
	.st66{fill:url(#SVGID_00000134240028291905300970000000142254160581631909_);}
	.st67{fill-rule:evenodd;clip-rule:evenodd;fill:#4CE400;}
	.st68{fill:#488A2E;}
	.st69{fill:url(#SVGID_00000019674710823684779200000003807842166998719147_);}
	.st70{fill:url(#SVGID_00000036949224592497432650000010428720456112083871_);}
	.st71{fill:url(#SVGID_00000078729988473923142450000004191924158009365135_);}
	.st72{fill:url(#SVGID_00000178184502661605581280000013687968997118107287_);}
	.st73{fill:url(#SVGID_00000065768737971096537830000008593765902787854475_);}
	.st74{fill:url(#SVGID_00000129194844083808161210000010196086033064520363_);}
	.st75{fill:url(#SVGID_00000083781954807945166060000000553906129627328438_);}
	.st76{fill:url(#SVGID_00000143593723262109440680000000764169718803663539_);}
	.st77{fill:#E7EDF3;}
	.st78{fill:url(#SVGID_00000141435143831388621670000012457477111601749170_);}
	.st79{fill:url(#SVGID_00000159453577907105043840000001486128183416384172_);}
	.st80{fill:url(#SVGID_00000133510079362500184150000010237210529058443165_);}
	.st81{fill:url(#SVGID_00000165232629169075398730000009829066201082705807_);}
	.st82{fill:url(#SVGID_00000040560930434696272290000011617720905905951104_);}
	.st83{fill:url(#SVGID_00000031906798686090042480000009171669227505682616_);}
	.st84{fill:url(#SVGID_00000096781513719626556130000009334669340058049163_);}
	.st85{fill:#F6F8FB;}
	.st86{fill:url(#SVGID_00000077317771041994657280000004125653990957668531_);}
	.st87{fill:url(#SVGID_00000056395581336824961560000007256580227564007335_);}
	.st88{fill:url(#SVGID_00000118356137409496308270000014206195899583845280_);}
	.st89{fill:url(#SVGID_00000114071551758971147820000010086725184301033656_);}
</style>
<g>
	<path d="M22.2,41.2c-4.7,0-9.3,0-14,0c-4.1,0-7.4-2.7-8.1-6.8C0.1,34.1,0,33.6,0,33.2c0-1.9,0-3.7,0-5.6c0-0.8,0.5-1.4,1.2-1.6
		c0.6-0.2,1.4,0,1.7,0.6c0.2,0.3,0.3,0.7,0.3,1.1c0,1.7,0,3.4,0,5c0,3.2,2.1,5.2,5.3,5.2c9.2,0,18.3,0,27.5,0c3.1,0,5.2-2.1,5.2-5.2
		c0-1.7,0-3.4,0-5c0-1.1,0.6-1.8,1.6-1.8c1,0,1.6,0.7,1.6,1.8c0,2.1,0.1,4.2-0.1,6.3c-0.3,4-3.8,7.2-7.9,7.2
		C31.7,41.2,27,41.2,22.2,41.2C22.2,41.2,22.2,41.2,22.2,41.2z"/>
	<path d="M20.6,25.5c0-0.2,0-0.4,0-0.5c0-7.7,0-15.3,0-23c0-0.3,0-0.5,0.1-0.8c0.2-0.8,0.9-1.2,1.7-1.1c0.8,0.1,1.4,0.7,1.5,1.5
		c0,0.2,0,0.4,0,0.6c0,7.6,0,15.2,0,22.8c0,0.2,0,0.4,0,0.7c0.2-0.2,0.3-0.3,0.4-0.4c2-2,3.9-3.9,5.9-5.9c0.5-0.5,1.2-0.7,1.8-0.4
		c0.6,0.3,1,0.9,0.9,1.6c-0.1,0.4-0.2,0.8-0.5,1c-3,3-6,6.1-9.1,9.1c-0.7,0.7-1.6,0.7-2.3,0c-3.1-3-6.1-6.1-9.2-9.1
		c-0.7-0.7-0.7-1.7-0.1-2.3c0.6-0.7,1.6-0.7,2.3,0c2,2,4,3.9,5.9,5.9c0.1,0.1,0.2,0.3,0.3,0.4C20.5,25.5,20.6,25.5,20.6,25.5z"/>
</g>
</svg>
