<?xml version="1.0" encoding="UTF-8" standalone="no" ?>
<!DOCTYPE svg PUBLIC "-//W3C//DTD SVG 1.1//EN" "http://www.w3.org/Graphics/SVG/1.1/DTD/svg11.dtd">
<svg xmlns="http://www.w3.org/2000/svg" xmlns:xlink="http://www.w3.org/1999/xlink" version="1.1" width="1080" height="1080" viewBox="0 0 1080 1080" xml:space="preserve">
<desc>Created with Fabric.js 5.2.4</desc>
<defs>
</defs>
<rect x="0" y="0" width="100%" height="100%" fill="transparent"></rect>
<g transform="matrix(0 0 0 0 0 0)" id="0045f256-f3b8-41b7-98b7-1be068732966"  >
</g>
<g transform="matrix(1 0 0 1 540 540)" id="66363481-246b-44e0-9dfe-1b4788229d8b"  >
<rect style="stroke: none; stroke-width: 1; stroke-dasharray: none; stroke-linecap: butt; stroke-dashoffset: 0; stroke-linejoin: miter; stroke-miterlimit: 4; fill: rgb(255,255,255); fill-rule: nonzero; opacity: 1;" vector-effect="non-scaling-stroke"  x="-540" y="-540" rx="0" ry="0" width="1080" height="1080" />
</g>
<g transform="matrix(0.76 0 0 0.76 538.24 543.48)"  >
<circle style="stroke: none; stroke-width: 1; stroke-dasharray: none; stroke-linecap: butt; stroke-dashoffset: 0; stroke-linejoin: miter; stroke-miterlimit: 4; fill: rgb(246,247,251); fill-rule: nonzero; opacity: 1;" vector-effect="non-scaling-stroke"  cx="0" cy="0" r="503" />
</g>
<g transform="matrix(0.76 0 0 0.76 124.11 129.34)"  >
<circle style="stroke: rgb(0,0,0); stroke-width: 2; stroke-dasharray: 20 20; stroke-linecap: butt; stroke-dashoffset: 0; stroke-linejoin: miter; stroke-miterlimit: 4; fill: rgb(244,246,249); fill-rule: nonzero; opacity: 1;" vector-effect="non-scaling-stroke"  cx="0" cy="0" r="113.9" />
</g>
<g transform="matrix(0.76 0 0 0.76 124.11 129.34)"  >
<circle style="stroke: none; stroke-width: 1; stroke-dasharray: none; stroke-linecap: butt; stroke-dashoffset: 0; stroke-linejoin: miter; stroke-miterlimit: 4; fill: rgb(244,166,49); fill-rule: nonzero; opacity: 1;" vector-effect="non-scaling-stroke"  cx="0" cy="0" r="52.8" />
</g>
<g transform="matrix(0.76 0 0 0.76 123.72 125.9)"  >
<path style="stroke: none; stroke-width: 1; stroke-dasharray: none; stroke-linecap: butt; stroke-dashoffset: 0; stroke-linejoin: miter; stroke-miterlimit: 4; fill: rgb(0,0,0); fill-rule: nonzero; opacity: 1;" vector-effect="non-scaling-stroke"  transform=" translate(-257.3, -253.3)" d="M 248.5 263.1 L 255.2 263.1 L 255.2 245.70000000000002 L 248.5 245.70000000000002 L 248.5 242.70000000000002 C 249.7 242.60000000000002 251.2 242.20000000000002 253 241.60000000000002 C 254.8 241.00000000000003 256.4 240.3 257.7 239.60000000000002 L 260 239.60000000000002 L 260 263.1 L 266.1 263.1 L 266.1 267 L 248.50000000000003 267 L 248.50000000000003 263.1 z" stroke-linecap="round" />
</g>
<g transform="matrix(0.76 0 0 0.76 955.89 129.34)"  >
<circle style="stroke: rgb(0,0,0); stroke-width: 2; stroke-dasharray: 20 20; stroke-linecap: butt; stroke-dashoffset: 0; stroke-linejoin: miter; stroke-miterlimit: 4; fill: rgb(244,246,249); fill-rule: nonzero; opacity: 1;" vector-effect="non-scaling-stroke"  cx="0" cy="0" r="113.9" />
</g>
<g transform="matrix(0.76 0 0 0.76 955.89 129.34)"  >
<circle style="stroke: none; stroke-width: 1; stroke-dasharray: none; stroke-linecap: butt; stroke-dashoffset: 0; stroke-linejoin: miter; stroke-miterlimit: 4; fill: rgb(244,166,49); fill-rule: nonzero; opacity: 1;" vector-effect="non-scaling-stroke"  cx="0" cy="0" r="52.8" />
</g>
<g transform="matrix(0.76 0 0 0.76 955.47 126.43)"  >
<path style="stroke: none; stroke-width: 1; stroke-dasharray: none; stroke-linecap: butt; stroke-dashoffset: 0; stroke-linejoin: miter; stroke-miterlimit: 4; fill: rgb(0,0,0); fill-rule: nonzero; opacity: 1;" vector-effect="non-scaling-stroke"  transform=" translate(-1346.25, -254)" d="M 1336.7 266.6 C 1336.7 265.1 1337 263.8 1337.7 262.6 C 1338.4 261.40000000000003 1339.2 260.3 1340.2 259.40000000000003 C 1341.2 258.50000000000006 1342.5 257.40000000000003 1344.2 256.20000000000005 C 1345.6000000000001 255.20000000000005 1346.7 254.30000000000004 1347.5 253.60000000000005 C 1348.3 252.90000000000006 1349 252.10000000000005 1349.6 251.30000000000004 C 1350.3999999999999 250.20000000000005 1350.6999999999998 249.00000000000003 1350.6999999999998 247.70000000000005 C 1350.6999999999998 246.70000000000005 1350.2999999999997 245.80000000000004 1349.6999999999998 245.10000000000005 C 1348.9999999999998 244.40000000000006 1347.9999999999998 244.00000000000006 1346.4999999999998 244.00000000000006 C 1344.9999999999998 244.00000000000006 1343.7999999999997 244.40000000000006 1342.9999999999998 245.10000000000005 C 1342.1999999999998 245.80000000000004 1341.8999999999999 246.90000000000006 1341.8999999999999 248.30000000000004 L 1341.8999999999999 249.90000000000003 L 1337.1 249.90000000000003 C 1337.1 249.80000000000004 1337 249.60000000000002 1337 249.30000000000004 C 1337 249.00000000000003 1337 248.70000000000005 1337 248.30000000000004 C 1337 245.50000000000003 1337.9 243.40000000000003 1339.8 242.10000000000005 C 1341.6 240.70000000000005 1344 240.00000000000006 1346.8 240.00000000000006 C 1349 240.00000000000006 1350.7 240.40000000000006 1352 241.20000000000005 C 1353.3 242.00000000000006 1354.3 243.10000000000005 1354.8 244.30000000000004 C 1355.3 245.50000000000003 1355.6 246.70000000000005 1355.6 248.00000000000003 C 1355.6 249.70000000000002 1355.1999999999998 251.20000000000002 1354.3999999999999 252.60000000000002 C 1353.6 254.00000000000003 1352.6 255.10000000000002 1351.4999999999998 256.1 C 1350.3999999999999 257.1 1348.8999999999999 258.20000000000005 1347.1999999999998 259.5 C 1346.4999999999998 260 1345.7999999999997 260.5 1345.1999999999998 261 C 1344.4999999999998 261.5 1343.9999999999998 262 1343.6 262.4 C 1343.1999999999998 262.9 1342.8 263.29999999999995 1342.6 263.59999999999997 L 1355.8 263.59999999999997 L 1355.8 267.99999999999994 L 1336.8 267.99999999999994 L 1336.8 266.6 z" stroke-linecap="round" />
</g>
<g transform="matrix(0.76 0 0 0.76 955.89 950.66)"  >
<circle style="stroke: rgb(0,0,0); stroke-width: 2; stroke-dasharray: 20 20; stroke-linecap: butt; stroke-dashoffset: 0; stroke-linejoin: miter; stroke-miterlimit: 4; fill: rgb(244,246,249); fill-rule: nonzero; opacity: 1;" vector-effect="non-scaling-stroke"  cx="0" cy="0" r="113.9" />
</g>
<g transform="matrix(0.76 0 0 0.76 955.89 950.66)"  >
<circle style="stroke: none; stroke-width: 1; stroke-dasharray: none; stroke-linecap: butt; stroke-dashoffset: 0; stroke-linejoin: miter; stroke-miterlimit: 4; fill: rgb(244,166,49); fill-rule: nonzero; opacity: 1;" vector-effect="non-scaling-stroke"  cx="0" cy="0" r="52.8" />
</g>
<g transform="matrix(0.76 0 0 0.76 955.28 949.33)"  >
<path style="stroke: none; stroke-width: 1; stroke-dasharray: none; stroke-linecap: butt; stroke-dashoffset: 0; stroke-linejoin: miter; stroke-miterlimit: 4; fill: rgb(0,0,0); fill-rule: nonzero; opacity: 1;" vector-effect="non-scaling-stroke"  transform=" translate(-1346, -1331.35)" d="M 1346.2 1345.5 C 1343.1000000000001 1345.5 1340.6000000000001 1344.8 1338.9 1343.3 C 1337.2 1341.8 1336.3000000000002 1339.8 1336.3000000000002 1337.3 L 1336.3000000000002 1336.7 L 1341.2000000000003 1336.7 L 1341.2000000000003 1337.4 C 1341.2000000000003 1338.8000000000002 1341.6000000000004 1339.8000000000002 1342.4000000000003 1340.5 C 1343.2000000000003 1341.2 1344.4000000000003 1341.6 1346.0000000000002 1341.6 C 1347.5000000000002 1341.6 1348.7000000000003 1341.1999999999998 1349.5000000000002 1340.6 C 1350.3000000000002 1339.8999999999999 1350.8000000000002 1338.8 1350.8000000000002 1337.3999999999999 C 1350.8000000000002 1334.6 1349.1000000000001 1333.1 1345.7000000000003 1333.1 L 1343.4000000000003 1333.1 L 1343.4000000000003 1329.1999999999998 L 1345.8000000000004 1329.1999999999998 C 1347.1000000000004 1329.1999999999998 1348.1000000000004 1328.7999999999997 1349.0000000000005 1328.1 C 1349.9000000000005 1327.4 1350.2000000000005 1326.3 1350.2000000000005 1325 C 1350.2000000000005 1323.7 1349.8000000000004 1322.7 1349.1000000000006 1322.1 C 1348.3000000000006 1321.3999999999999 1347.3000000000006 1321.1 1346.1000000000006 1321.1 C 1344.8000000000006 1321.1 1343.7000000000005 1321.3999999999999 1342.9000000000005 1322.1 C 1342.1000000000006 1322.8 1341.7000000000005 1323.8 1341.7000000000005 1325.1 L 1341.7000000000005 1325.6999999999998 L 1336.9000000000005 1325.6999999999998 L 1336.9000000000005 1324.6999999999998 C 1336.9000000000005 1323.1999999999998 1337.3000000000006 1321.8999999999999 1338.1000000000006 1320.7999999999997 C 1338.9000000000005 1319.5999999999997 1339.9000000000005 1318.7999999999997 1341.3000000000006 1318.1999999999998 C 1342.7000000000007 1317.6 1344.3000000000006 1317.1999999999998 1346.0000000000007 1317.1999999999998 C 1348.8000000000006 1317.1999999999998 1351.0000000000007 1317.8999999999999 1352.6000000000006 1319.1999999999998 C 1354.3000000000006 1320.4999999999998 1355.1000000000006 1322.3999999999999 1355.1000000000006 1324.7999999999997 C 1355.1000000000006 1326.2999999999997 1354.7000000000005 1327.5999999999997 1353.9000000000005 1328.5999999999997 C 1353.1000000000006 1329.5999999999997 1352.0000000000005 1330.3999999999996 1350.7000000000005 1330.9999999999998 L 1350.7000000000005 1331.1999999999998 C 1352.2000000000005 1331.6 1353.4000000000005 1332.3999999999999 1354.3000000000004 1333.6 C 1355.2000000000005 1334.8 1355.7000000000005 1336.1999999999998 1355.7000000000005 1337.8999999999999 C 1355.7000000000005 1339.4999999999998 1355.3000000000004 1340.8999999999999 1354.5000000000005 1342.1 C 1353.7000000000005 1343.3 1352.6000000000004 1344.1999999999998 1351.1000000000004 1344.8 C 1349.7 1345.2 1348.1 1345.5 1346.2 1345.5 z" stroke-linecap="round" />
</g>
<g transform="matrix(0.76 0 0 0.76 124.11 950.66)"  >
<circle style="stroke: rgb(0,0,0); stroke-width: 2; stroke-dasharray: 20 20; stroke-linecap: butt; stroke-dashoffset: 0; stroke-linejoin: miter; stroke-miterlimit: 4; fill: rgb(244,246,249); fill-rule: nonzero; opacity: 1;" vector-effect="non-scaling-stroke"  cx="0" cy="0" r="113.9" />
</g>
<g transform="matrix(0.76 0 0 0.76 124.11 950.66)"  >
<ellipse style="stroke: none; stroke-width: 1; stroke-dasharray: none; stroke-linecap: butt; stroke-dashoffset: 0; stroke-linejoin: miter; stroke-miterlimit: 4; fill: rgb(244,166,49); fill-rule: nonzero; opacity: 1;" vector-effect="non-scaling-stroke"  cx="0" cy="0" rx="52.8" ry="52.8" />
</g>
<g transform="matrix(0.76 0 0 0.76 122.77 949.02)"  >
<path style="stroke: none; stroke-width: 1; stroke-dasharray: none; stroke-linecap: butt; stroke-dashoffset: 0; stroke-linejoin: miter; stroke-miterlimit: 4; fill: rgb(0,0,0); fill-rule: nonzero; opacity: 1;" vector-effect="non-scaling-stroke"  transform=" translate(-256.05, -1330.95)" d="M 258 1338.8 L 245.9 1338.8 L 245.9 1334.8 C 249.20000000000002 1329.2 251.70000000000002 1323.3 253.3 1317 L 258.3 1317 C 257.8 1319.2 257 1321.5 256 1324 C 255 1326.4 253.9 1328.7 252.8 1330.6 C 251.70000000000002 1332.6 250.9 1334 250.20000000000002 1334.8 L 258 1334.8 L 258 1327.7 C 259 1325.8 259.8 1323.5 260.5 1321 L 262.8 1321 L 262.8 1334.8 L 266.2 1334.8 L 266.2 1338.7 L 262.8 1338.7 L 262.8 1344.9 L 258 1344.9 L 258 1338.8 z" stroke-linecap="round" />
</g>
</svg>