<?xml version="1.0" encoding="utf-8"?>
<!-- Generator: Adobe Illustrator 27.5.0, SVG Export Plug-In . SVG Version: 6.00 Build 0)  -->
<svg version="1.1" id="Layer_1" xmlns="http://www.w3.org/2000/svg" xmlns:xlink="http://www.w3.org/1999/xlink" x="0px" y="0px"
	 viewBox="0 0 125 125" style="enable-background:new 0 0 125 125;" xml:space="preserve">
<style type="text/css">
	.st0{fill:#020103;}
</style>
<g>
	<path d="M68.6,113.9c-6.9,0-13.6,0-20.5,0c0-22,0-44,0-66c6.5,0,13,0,19.7,0c0,2.9,0,5.8,0,8.8c1.4-1.7,2.6-3.3,4.1-4.7
		c3.6-3.4,8-5.2,13-5.6c4.2-0.4,8.5-0.1,12.6,1.2c6.8,2.1,10.9,6.9,12.9,13.6c1.3,4.4,1.8,9,1.8,13.6c0.1,12.8,0.1,25.6,0.1,38.4
		c0,0.2,0,0.3-0.1,0.6c-6.8,0-13.6,0-20.5,0c0-0.5,0-0.9,0-1.4c0-10.9,0-21.9,0-32.8c0-2.3-0.2-4.6-0.6-6.8
		c-1.3-6.9-5.7-9.1-11.9-8.4c-5.8,0.7-9,4.1-9.9,10.3c-0.3,2.3-0.5,4.6-0.5,6.9c0,10.3,0,20.7,0,31
		C68.6,112.9,68.6,113.4,68.6,113.9z"/>
	<path d="M35,113.9c-6.8,0-13.6,0-20.4,0c0-22,0-44,0-66.1c6.8,0,13.6,0,20.4,0C35,69.9,35,91.8,35,113.9z"/>
	<path d="M36.7,26.9c-0.1,6.7-5.6,12-12.2,11.8c-6.4-0.2-11.7-5.8-11.5-12.2c0.1-6.6,5.6-11.9,12.1-11.7
		C31.6,15,36.8,20.4,36.7,26.9z"/>
</g>
</svg>
