<?xml version="1.0" encoding="utf-8"?>
<!-- Generator: Adobe Illustrator 26.5.0, SVG Export Plug-In . SVG Version: 6.00 Build 0)  -->
<svg version="1.1" id="Layer_1" xmlns="http://www.w3.org/2000/svg" xmlns:xlink="http://www.w3.org/1999/xlink" x="0px" y="0px"
	 viewBox="0 0 125 125" style="enable-background:new 0 0 125 125;" xml:space="preserve">
<style type="text/css">
	.st0{fill:#020103;}
	.st1{fill:#010101;}
	.st2{fill:#020202;}
</style>
<path class="st0" d="M80.9,15.8c1.2,0.4,2.4,0.2,3.6,0.4c1,0.2,2.1,0.2,3.2,0.3c0.4,0,0.6,0.2,0.6,0.6c0,4.9,0,9.7,0,14.6
	c0,0.6-0.3,0.6-0.7,0.6c-2.7,0-5.4,0-8.1,0c-1.2,0-2.3,0.1-3.5,0.2c-3.6,0.6-5.6,2.8-5.7,6.6c-0.1,4.1,0,8.2-0.1,12.4
	c0,0.7,0.4,0.6,0.8,0.6c5.2,0,10.4,0,15.5,0c0.9,0,1.1,0.2,0.9,1c-0.7,5.2-1.4,10.5-2,15.7c-0.1,0.8-0.4,0.9-1.1,0.9
	c-4.4,0-8.8,0-13.2,0c-0.8,0-1,0.2-1,1c0,14.4,0,28.7,0,43.1c0,1-0.3,1.1-1.2,1.1c-5.3,0-10.6,0-15.9,0c-0.8,0-1.1-0.2-1.1-1.1
	c0-14.3,0-28.6,0-43c0-0.9-0.2-1.1-1.1-1.1c-4.4,0-8.8,0-13.2,0c-0.7,0-0.9-0.2-0.9-0.9c0-5.3,0-10.6,0-15.8c0-0.8,0.2-0.9,0.9-0.9
	c4.4,0,8.9,0,13.3,0c0.8,0,1-0.2,1-1c0-4.7-0.1-9.3,0.1-14c0.2-5.5,1.9-10.6,5.8-14.8c3-3.2,6.7-5,10.9-5.9c0.9-0.2,1.9-0.1,2.8-0.6
	C74.7,15.8,77.8,15.8,80.9,15.8z"/>
</svg>
