<svg version="1.1" id="Layer_1" xmlns="http://www.w3.org/2000/svg" xmlns:xlink="http://www.w3.org/1999/xlink" x="0px" y="0px" viewBox="0 0 1600 1600" style="enable-background:new 0 0 1600 1600;" xml:space="preserve">
						<style type="text/css">
							.st0 {
								fill: none;
								stroke: #000000;
								stroke-width: 2;
								stroke-dasharray: 20, 20;
							}

							.st1 {
								fill: #F6F7FB;
							}

							.st2 {
								fill: #F4F6F9;
								stroke: #000000;
								stroke-width: 2;
								stroke-dasharray: 20, 20;
							}

							.st3 {
								fill: #F4A631;
							}

							.st4 {
								fill: #EAEFF4;
							}

							.st5 {
								fill: #E7EDF3;
							}

							.st6 {
								fill: #D9E3EC;
							}

							.st7 {
								fill: #C6D3E3;
							}

							.st8 {
								fill: url(#SVGID_1_);
							}

							.st9 {
								fill: url(#SVGID_00000071553131372610800100000015164028798123573927_);
							}

							.st10 {
								fill: url(#SVGID_00000000182759904720944520000015138794308300234421_);
							}

							.st11 {
								fill: url(#SVGID_00000044856146308822975410000002301439021341677699_);
							}

							.st12 {
								fill: #F5F7FB;
							}

							.st13 {
								fill: url(#SVGID_00000151534466491154803060000014537472725442503044_);
							}

							.st14 {
								fill: #F7BB44;
							}

							.st15 {
								fill: url(#SVGID_00000009569473731053679310000016743439028800233653_);
							}

							.st16 {
								fill: #FFDEA4;
							}

							.st17 {
								fill: #FFFFFF;
							}

							.st18 {
								fill: url(#SVGID_00000070835852766375306440000005422169645873707927_);
							}

							.st19 {
								fill: url(#SVGID_00000124869434447769690350000010294122739414083242_);
							}

							.st20 {
								fill: #FAFBFD;
							}

							.st21 {
								fill: #F4F6F9;
							}

							.st22 {
								fill: #FFCF76;
							}

							.st23 {
								fill-rule: evenodd;
								clip-rule: evenodd;
								fill: #FAFBFD;
							}

							.st24 {
								fill-rule: evenodd;
								clip-rule: evenodd;
								fill: #D9E3EC;
							}

							.st25 {
								fill-rule: evenodd;
								clip-rule: evenodd;
								fill: #FFCF76;
							}

							.st26 {
								fill: url(#SVGID_00000042001259244316302430000007584094568487582622_);
							}

							.st27 {
								fill-rule: evenodd;
								clip-rule: evenodd;
								fill: #FFDEA4;
							}

							.st28 {
								fill: url(#SVGID_00000090256977460389628690000010358411463340919963_);
							}

							.st29 {
								fill: url(#SVGID_00000172415875725925034410000017149930696295852708_);
							}

							.st30 {
								fill-rule: evenodd;
								clip-rule: evenodd;
								fill: url(#SVGID_00000067927110910287553500000005407414987264242367_);
							}

							.st31 {
								fill-rule: evenodd;
								clip-rule: evenodd;
								fill: #EE5635;
							}

							.st32 {
								fill: #EE5635;
							}

							.st33 {
								fill: #F4745B;
							}

							.st34 {
								fill: url(#SVGID_00000057831101632467371110000014768969945698278565_);
							}

							.st35 {
								fill: url(#SVGID_00000090256876483258954990000014548710842304936598_);
							}

							.st36 {
								fill-rule: evenodd;
								clip-rule: evenodd;
								fill: #F7BB44;
							}

							.st37 {
								fill: url(#SVGID_00000053547296717237305340000018019052357206895251_);
							}

							.st38 {
								fill: url(#SVGID_00000034055794891497381590000017474903510814967195_);
							}

							.st39 {
								fill-rule: evenodd;
								clip-rule: evenodd;
								fill: url(#SVGID_00000155132961184976529180000005542943968861997226_);
							}

							.st40 {
								fill-rule: evenodd;
								clip-rule: evenodd;
								fill: #4A8DE6;
							}

							.st41 {
								fill: url(#SVGID_00000054975832191844408740000012890593239787046036_);
							}

							.st42 {
								fill-rule: evenodd;
								clip-rule: evenodd;
								fill: url(#SVGID_00000037655752252520015510000000663430376556439181_);
							}

							.st43 {
								fill: url(#SVGID_00000093898116089271898870000008895844122602307500_);
							}

							.st44 {
								fill-rule: evenodd;
								clip-rule: evenodd;
								fill: #5D9EF2;
							}

							.st45 {
								fill: url(#SVGID_00000128458078890692280510000016461252689527659170_);
							}

							.st46 {
								fill: url(#SVGID_00000009549216528869168510000006387847892170398608_);
							}

							.st47 {
								fill: url(#SVGID_00000076604628189330943280000005636598751614083988_);
							}

							.st48 {
								fill-rule: evenodd;
								clip-rule: evenodd;
								fill: #F2F4F9;
							}

							.st49 {
								fill: url(#SVGID_00000146466696593158910020000014322566241173714562_);
							}

							.st50 {
								fill: url(#SVGID_00000057834734940758046080000009547181782720560269_);
							}

							.st51 {
								fill: url(#SVGID_00000121253909191281772320000006238499658497992333_);
							}

							.st52 {
								fill: url(#SVGID_00000072985292424953685660000011646866226162603426_);
							}

							.st53 {
								fill: url(#SVGID_00000138568030853372058560000006080706409237895348_);
							}

							.st54 {
								fill: url(#SVGID_00000108305763152055632280000006379863958086772386_);
							}

							.st55 {
								fill: url(#SVGID_00000075150296029989060310000017930544341685595837_);
							}

							.st56 {
								fill-rule: evenodd;
								clip-rule: evenodd;
								fill: #F4A631;
							}

							.st57 {
								fill-rule: evenodd;
								clip-rule: evenodd;
								fill: #FFE6B8;
							}

							.st58 {
								fill: #FFE6B8;
							}

							.st59 {
								fill-rule: evenodd;
								clip-rule: evenodd;
								fill: #FFD792;
							}

							.st60 {
								fill: #FFD792;
							}

							.st61 {
								fill: url(#SVGID_00000126296833165855102030000005209299018179167653_);
							}
						</style>
						<!-- <circle class="st0" cx="800" cy="800" r="771"></circle> -->
						<circle class="st1" cx="800" cy="800" r="503"></circle>
						<g onclick="hs7num1()" class="hs7num1 servicenum addremove" id="hs7num1">
							<circle class="st2" cx="257.8" cy="257.8" r="113.9"></circle>
							<circle class="st3" cx="257.8" cy="257.8" r="52.8"></circle>
							<path d="M248.5,263.1h6.7v-17.4h-6.7v-3c1.2-0.1,2.7-0.5,4.5-1.1c1.8-0.6,3.4-1.3,4.7-2h2.3v23.5h6.1v3.9h-17.6V263.1z"></path>
						</g>
						<g onclick="hs7num2()" class="hs7num2 servicenum addremove" id="hs7num2">
							<circle class="st2" cx="1346.8" cy="257.8" r="113.9"></circle>
							<circle class="st3" cx="1346.8" cy="257.8" r="52.8"></circle>
							<path d="M1336.7,266.6c0-1.5,0.3-2.8,1-4c0.7-1.2,1.5-2.3,2.5-3.2c1-0.9,2.3-2,4-3.2c1.4-1,2.5-1.9,3.3-2.6
		c0.8-0.7,1.5-1.5,2.1-2.3c0.8-1.1,1.1-2.3,1.1-3.6c0-1-0.4-1.9-1-2.6c-0.7-0.7-1.7-1.1-3.2-1.1c-1.5,0-2.7,0.4-3.5,1.1
		c-0.8,0.7-1.1,1.8-1.1,3.2v1.6h-4.8c0-0.1-0.1-0.3-0.1-0.6c0-0.3,0-0.6,0-1c0-2.8,0.9-4.9,2.8-6.2c1.8-1.4,4.2-2.1,7-2.1
		c2.2,0,3.9,0.4,5.2,1.2c1.3,0.8,2.3,1.9,2.8,3.1c0.5,1.2,0.8,2.4,0.8,3.7c0,1.7-0.4,3.2-1.2,4.6c-0.8,1.4-1.8,2.5-2.9,3.5
		c-1.1,1-2.6,2.1-4.3,3.4c-0.7,0.5-1.4,1-2,1.5c-0.7,0.5-1.2,1-1.6,1.4c-0.4,0.5-0.8,0.9-1,1.2h13.2v4.4h-19V266.6z"></path>
						</g>
						<g onclick="hs7num3()" class="hs7num3 servicenum addremove" id="hs7num3">
							<circle class="st2" cx="1346.8" cy="1333.1" r="113.9"></circle>
							<circle class="st3" cx="1346.8" cy="1333.1" r="52.8"></circle>
							<path d="M1346.2,1345.5c-3.1,0-5.6-0.7-7.3-2.2c-1.7-1.5-2.6-3.5-2.6-6v-0.6h4.9v0.7c0,1.4,0.4,2.4,1.2,3.1c0.8,0.7,2,1.1,3.6,1.1
		c1.5,0,2.7-0.4,3.5-1c0.8-0.7,1.3-1.8,1.3-3.2c0-2.8-1.7-4.3-5.1-4.3h-2.3v-3.9h2.4c1.3,0,2.3-0.4,3.2-1.1s1.2-1.8,1.2-3.1
		c0-1.3-0.4-2.3-1.1-2.9c-0.8-0.7-1.8-1-3-1c-1.3,0-2.4,0.3-3.2,1s-1.2,1.7-1.2,3v0.6h-4.8v-1c0-1.5,0.4-2.8,1.2-3.9
		c0.8-1.2,1.8-2,3.2-2.6c1.4-0.6,3-1,4.7-1c2.8,0,5,0.7,6.6,2c1.7,1.3,2.5,3.2,2.5,5.6c0,1.5-0.4,2.8-1.2,3.8
		c-0.8,1-1.9,1.8-3.2,2.4v0.2c1.5,0.4,2.7,1.2,3.6,2.4c0.9,1.2,1.4,2.6,1.4,4.3c0,1.6-0.4,3-1.2,4.2c-0.8,1.2-1.9,2.1-3.4,2.7
		C1349.7,1345.2,1348.1,1345.5,1346.2,1345.5z"></path>
						</g>
						<g onclick="hs7num4()" class="hs7num4 servicenum addremove servicenumvar" id="hs7num4">
							<circle class="st2" cx="257.8" cy="1333.1" r="113.9"></circle>
							<ellipse class="st3" cx="257.8" cy="1333.1" rx="52.8" ry="52.8"></ellipse>
							<path d="M258,1338.8h-12.1v-4c3.3-5.6,5.8-11.5,7.4-17.8h5c-0.5,2.2-1.3,4.5-2.3,7c-1,2.4-2.1,4.7-3.2,6.6c-1.1,2-1.9,3.4-2.6,4.2
		h7.8v-7.1c1-1.9,1.8-4.2,2.5-6.7h2.3v13.8h3.4v3.9h-3.4v6.2H258V1338.8z"></path>
						</g>
						<g id="_x30_1" class="hs7img1">
							<image x="300" y="300" width="1000" xlink:href="https://ik.imagekit.io/casagrand/img/bts-lease.png?tr=f-webp" clip-path="url(#imagecirclerect)"></image>
						</g>
						<g id="_x30_2" class="hs7img1">
							<image x="300" y="300" width="1000" xlink:href="https://ik.imagekit.io/casagrand/img/lease-purchase.png?tr=f-webp" clip-path="url(#imagecirclerect)"></image>
						</g>
						<g id="_x30_3" class="hs7img1">
							<image x="300" y="300" width="1000" xlink:href="https://ik.imagekit.io/casagrand/img/bts-sale.png?tr=f-webp" clip-path="url(#imagecirclerect)"></image>
						</g>
						<g id="_x30_4" class="hs7img1 hs7-active">
							<image x="300" y="300" width="1000" xlink:href="https://ik.imagekit.io/casagrand/img/land-contractor1.png?tr=f-webp" clip-path="url(#imagecirclerect)"></image>
						</g>
					</svg>